<svg width="900" height="336" viewBox="0 0 900 336" fill="none" xmlns="http://www.w3.org/2000/svg">
<rect y="0.0246582" width="288.895" height="335.118" rx="27.3187" fill="white"/>
<path d="M121.351 111.277H143.811C145.686 111.277 147.367 110.844 148.854 109.977C150.341 109.098 151.518 107.908 152.384 106.408C153.264 104.908 153.703 103.215 153.703 101.327C153.703 99.3871 153.244 97.6608 152.326 96.1479C151.408 94.6351 150.154 93.439 148.563 92.5597C146.973 91.6804 145.162 91.2408 143.132 91.2408C142.434 89.9218 141.535 88.7387 140.436 87.6913C139.35 86.631 138.064 85.7969 136.577 85.1892C135.102 84.5685 133.434 84.2582 131.572 84.2582C129.891 84.2582 128.307 84.5556 126.82 85.1504C125.333 85.7323 124.001 86.5534 122.825 87.6137C121.661 88.674 120.717 89.9154 119.993 91.3377C119.282 92.7601 118.855 94.3053 118.713 95.9734C116.98 96.4518 115.59 97.3764 114.543 98.747C113.508 100.105 112.991 101.695 112.991 103.518C112.991 105.057 113.34 106.408 114.038 107.572C114.75 108.736 115.732 109.648 116.987 110.307C118.241 110.954 119.696 111.277 121.351 111.277ZM156.535 98.9798C157.867 98.0617 158.927 96.885 159.716 95.4497C160.505 94.0015 160.899 92.4239 160.899 90.7171C160.899 88.9068 160.453 87.2581 159.561 85.7711C158.682 84.2711 157.492 83.075 155.992 82.1828C154.505 81.2906 152.85 80.8445 151.027 80.8445C149.229 80.8445 147.587 81.2841 146.1 82.1634C144.626 83.0298 143.488 84.1418 142.686 85.4995C143.113 85.9392 143.507 86.4111 143.869 86.9154C144.244 87.4068 144.587 87.9434 144.897 88.5253C146.953 88.6675 148.802 89.1977 150.445 90.1158C152.087 91.0209 153.438 92.2364 154.498 93.7622C155.559 95.2751 156.238 97.0143 156.535 98.9798ZM139.04 81.5815C139.428 81.9824 139.9 82.1828 140.456 82.1828C141.025 82.1828 141.497 81.9889 141.872 81.6009C142.26 81.213 142.447 80.7475 142.434 80.2044C142.434 79.6484 142.24 79.1764 141.852 78.7885L139.234 76.1313C138.859 75.7433 138.387 75.5494 137.818 75.5494C137.262 75.5494 136.79 75.7433 136.402 76.1313C136.014 76.5192 135.82 76.9911 135.82 77.5472C135.833 78.1032 136.033 78.5752 136.421 78.9631L139.04 81.5815ZM151.007 77.7993C151.563 77.7993 152.035 77.6054 152.423 77.2174C152.811 76.8166 153.005 76.3381 153.005 75.7821V72.0775C153.005 71.5215 152.811 71.0495 152.423 70.6616C152.035 70.2607 151.563 70.0603 151.007 70.0603C150.464 70.0603 149.992 70.2607 149.591 70.6616C149.203 71.0495 149.009 71.5215 149.009 72.0775V75.7821C149.009 76.3381 149.203 76.8166 149.591 77.2174C149.992 77.6054 150.464 77.7993 151.007 77.7993ZM160.162 81.6203C160.537 82.0083 161.003 82.2022 161.559 82.2022C162.128 82.1893 162.606 81.9889 162.994 81.6009L165.632 78.9825C166.02 78.5946 166.214 78.1226 166.214 77.5666C166.214 76.9976 166.02 76.5192 165.632 76.1313C165.244 75.7563 164.772 75.5688 164.216 75.5688C163.673 75.5688 163.207 75.7692 162.819 76.17L160.162 78.7885C159.774 79.1635 159.58 79.6355 159.58 80.2044C159.58 80.7604 159.774 81.2324 160.162 81.6203ZM165.923 92.7149H169.647C170.203 92.7149 170.675 92.5274 171.063 92.1524C171.463 91.7644 171.664 91.2925 171.664 90.7365C171.664 90.1934 171.463 89.7214 171.063 89.3205C170.675 88.9197 170.203 88.7193 169.647 88.7193H165.923C165.38 88.7193 164.908 88.9197 164.507 89.3205C164.106 89.7214 163.906 90.1934 163.906 90.7365C163.906 91.2925 164.106 91.7644 164.507 92.1524C164.908 92.5274 165.38 92.7149 165.923 92.7149ZM162.8 105.342C163.188 105.73 163.66 105.924 164.216 105.924C164.772 105.924 165.244 105.736 165.632 105.361C166.02 104.973 166.207 104.501 166.194 103.945C166.181 103.389 165.987 102.917 165.612 102.529L162.975 99.8914C162.6 99.5035 162.128 99.3095 161.559 99.3095C161.003 99.3095 160.531 99.5035 160.143 99.8914C159.755 100.266 159.561 100.738 159.561 101.307C159.574 101.863 159.774 102.329 160.162 102.704L162.8 105.342ZM121.913 120.897L124.357 116.65C124.564 116.3 124.622 115.932 124.532 115.544C124.441 115.169 124.221 114.878 123.872 114.671C123.51 114.464 123.148 114.413 122.786 114.516C122.424 114.632 122.133 114.872 121.913 115.234L119.45 119.52C119.256 119.856 119.198 120.212 119.275 120.587C119.366 120.962 119.592 121.253 119.954 121.46C120.303 121.667 120.665 121.705 121.04 121.576C121.415 121.46 121.706 121.233 121.913 120.897ZM128.023 126.348L130.467 122.08C130.674 121.731 130.732 121.369 130.641 120.994C130.551 120.619 130.331 120.328 129.982 120.121C129.62 119.915 129.258 119.863 128.896 119.966C128.534 120.083 128.243 120.322 128.023 120.684L125.56 124.951C125.366 125.3 125.307 125.656 125.385 126.018C125.476 126.393 125.702 126.69 126.064 126.91C126.426 127.104 126.788 127.143 127.15 127.026C127.525 126.91 127.816 126.684 128.023 126.348ZM137.352 120.878L139.816 116.63C140.01 116.281 140.061 115.919 139.971 115.544C139.88 115.169 139.654 114.872 139.292 114.652C138.943 114.445 138.587 114.393 138.225 114.497C137.863 114.613 137.572 114.859 137.352 115.234L134.889 119.501C134.695 119.837 134.637 120.193 134.715 120.568C134.805 120.943 135.031 121.233 135.393 121.44C135.742 121.647 136.105 121.693 136.48 121.576C136.855 121.46 137.145 121.227 137.352 120.878ZM143.443 126.328L145.925 122.08C146.119 121.731 146.171 121.363 146.081 120.975C146.003 120.6 145.783 120.309 145.421 120.102C145.059 119.895 144.697 119.843 144.335 119.947C143.973 120.063 143.682 120.309 143.462 120.684L140.999 124.951C140.805 125.287 140.747 125.643 140.824 126.018C140.915 126.393 141.141 126.684 141.503 126.891C141.852 127.098 142.214 127.143 142.589 127.026C142.964 126.91 143.249 126.677 143.443 126.328Z" fill="black"/>
<path d="M198.112 92.5616C200.905 91.7211 203.724 91.3009 206.569 91.3009C207.732 91.3009 208.825 91.3461 209.847 91.4366C210.868 91.5271 211.883 91.6177 212.892 91.7082C213.9 91.7987 214.961 91.8439 216.073 91.8439C217.288 91.8439 218.355 91.5853 219.273 91.0681C220.191 90.5509 220.909 89.8461 221.426 88.9539C221.943 88.0617 222.202 87.0596 222.202 85.9476C222.202 84.8097 221.937 83.8011 221.407 82.9218C220.889 82.0296 220.185 81.3313 219.293 80.827C218.413 80.3227 217.424 80.0706 216.325 80.0706C215.187 80.0706 214.14 80.3809 213.183 81.0016C212.226 81.6222 211.508 82.4175 211.03 83.3873C210.81 83.8269 210.745 84.2666 210.836 84.7062C210.939 85.1458 211.198 85.482 211.612 85.7148C212.038 85.9605 212.485 86.0122 212.95 85.87C213.428 85.7277 213.803 85.4109 214.075 84.9196C214.269 84.5187 214.573 84.1825 214.987 83.911C215.4 83.6394 215.846 83.5037 216.325 83.5037C217.023 83.5037 217.605 83.7235 218.071 84.1631C218.536 84.6028 218.769 85.1976 218.769 85.9476C218.769 86.6975 218.523 87.2988 218.032 87.7514C217.553 88.191 216.9 88.4108 216.073 88.4108C215.038 88.4108 214.023 88.3656 213.028 88.2751C212.045 88.1846 211.023 88.094 209.963 88.0035C208.916 87.913 207.784 87.8678 206.569 87.8678C204.991 87.8678 203.401 87.9971 201.797 88.2557C200.194 88.5014 198.629 88.844 197.103 89.2837C196.586 89.4259 196.211 89.7039 195.979 90.1177C195.746 90.5315 195.7 90.9711 195.843 91.4366C195.972 91.9151 196.244 92.2642 196.657 92.484C197.071 92.7038 197.556 92.7297 198.112 92.5616ZM228.68 102.24C230.258 102.24 231.654 101.923 232.87 101.29C234.098 100.656 235.061 99.7898 235.76 98.6907C236.458 97.5916 236.807 96.3309 236.807 94.9085C236.807 93.512 236.484 92.2642 235.837 91.1651C235.191 90.066 234.318 89.1996 233.219 88.566C232.12 87.9324 230.891 87.6156 229.534 87.6156C228.409 87.6156 227.368 87.8484 226.411 88.3139C225.467 88.7664 224.659 89.3936 223.986 90.1953C223.327 90.997 222.868 91.9086 222.609 92.9301C222.467 93.4344 222.493 93.8935 222.687 94.3072C222.894 94.721 223.217 94.999 223.657 95.1413C224.135 95.2835 224.588 95.2382 225.014 95.0055C225.454 94.7598 225.751 94.359 225.907 93.8029C226.049 93.2598 226.294 92.7814 226.644 92.3676C227.006 91.9539 227.432 91.6306 227.924 91.3978C228.428 91.1651 228.965 91.0487 229.534 91.0487C230.245 91.0487 230.891 91.2103 231.473 91.5336C232.068 91.8569 232.534 92.3094 232.87 92.8913C233.206 93.4732 233.374 94.1456 233.374 94.9085C233.374 96.0723 232.947 97.0162 232.094 97.7403C231.24 98.4515 230.103 98.8071 228.68 98.8071C227.206 98.8071 225.687 98.639 224.122 98.3028C222.57 97.9537 220.961 97.5593 219.293 97.1197C217.624 96.68 215.892 96.2921 214.094 95.9559C212.297 95.6068 210.422 95.4322 208.47 95.4322C206.452 95.4322 204.5 95.5874 202.612 95.8977C200.724 96.208 198.881 96.6606 197.084 97.2554C196.567 97.4365 196.192 97.7339 195.959 98.1476C195.739 98.5485 195.7 98.9817 195.843 99.4472C195.972 99.9256 196.25 100.275 196.677 100.495C197.116 100.701 197.601 100.714 198.131 100.533C199.761 99.9515 201.416 99.5312 203.097 99.2726C204.791 99.014 206.582 98.8847 208.47 98.8847C210.37 98.8847 212.181 99.0528 213.9 99.389C215.62 99.7252 217.288 100.12 218.905 100.572C220.534 101.012 222.15 101.4 223.754 101.736C225.357 102.072 226.999 102.24 228.68 102.24ZM216.092 116.419C217.178 116.419 218.155 116.167 219.021 115.662C219.9 115.158 220.592 114.466 221.096 113.587C221.601 112.721 221.853 111.725 221.853 110.6C221.853 108.169 220.65 106.3 218.245 104.994C215.853 103.676 212.426 103.016 207.965 103.016C206.181 103.016 204.338 103.178 202.437 103.501C200.549 103.811 198.765 104.251 197.084 104.82C196.567 104.988 196.192 105.279 195.959 105.693C195.739 106.106 195.7 106.54 195.843 106.992C195.972 107.471 196.25 107.82 196.677 108.04C197.116 108.259 197.601 108.272 198.131 108.078C199.657 107.548 201.248 107.147 202.903 106.876C204.571 106.591 206.258 106.449 207.965 106.449C211.314 106.449 213.894 106.824 215.704 107.574C217.515 108.324 218.42 109.333 218.42 110.6C218.42 111.35 218.193 111.938 217.741 112.365C217.301 112.792 216.752 113.005 216.092 113.005C215.51 113.005 215.019 112.818 214.618 112.443C214.23 112.08 213.946 111.576 213.765 110.93C213.609 110.464 213.331 110.121 212.931 109.902C212.53 109.669 212.084 109.624 211.592 109.766C211.088 109.908 210.739 110.206 210.545 110.658C210.364 111.098 210.364 111.57 210.545 112.074C210.881 113.315 211.541 114.35 212.523 115.177C213.519 116.005 214.709 116.419 216.092 116.419Z" fill="black"/>
<path d="M62.1125 118.61C62.6944 118.61 63.1534 118.423 63.4896 118.048C63.8258 117.686 63.9939 117.207 63.9939 116.613V113.005L66.2826 114.498C66.6964 114.835 67.136 114.99 67.6016 114.964C68.08 114.938 68.4744 114.705 68.7847 114.266C69.0433 113.878 69.1274 113.457 69.0369 113.005C68.9593 112.552 68.6877 112.177 68.2222 111.88L63.9939 109.339V107.07L63.5284 100.766L68.8041 104.296L70.7825 105.44L70.8795 110.348C70.8924 110.904 71.0734 111.337 71.4226 111.647C71.7717 111.945 72.179 112.074 72.6445 112.035C73.1876 111.996 73.5885 111.783 73.8471 111.395C74.1057 110.994 74.1897 110.529 74.0992 109.998L73.944 107.264L77.0668 109.067C77.584 109.365 78.0883 109.455 78.5797 109.339C79.0711 109.223 79.4525 108.919 79.7241 108.427C79.9956 107.936 80.0603 107.445 79.918 106.953C79.7887 106.462 79.4719 106.074 78.9676 105.79L75.8449 103.966L78.2888 102.744C78.7801 102.55 79.1357 102.247 79.3555 101.833C79.5754 101.406 79.5624 100.947 79.3167 100.456C79.1099 100.029 78.7866 99.7444 78.3469 99.6022C77.9202 99.46 77.4677 99.5182 76.9892 99.7768L72.6639 102.143L70.6855 100.999L64.9637 98.2445L70.7049 95.4709L72.6639 94.3265L76.9698 96.7122C77.4612 96.9708 77.9267 97.0225 78.3663 96.8674C78.806 96.7122 79.1293 96.4213 79.3361 95.9945C79.5689 95.5161 79.5754 95.07 79.3555 94.6562C79.1486 94.2424 78.7931 93.9321 78.2888 93.7252L75.8449 92.5033L78.9676 90.6994C79.4848 90.3891 79.8081 90.0012 79.9374 89.5357C80.0797 89.0572 80.015 88.5659 79.7435 88.0616C79.459 87.5702 79.0711 87.2663 78.5797 87.15C78.0883 87.0207 77.5905 87.1047 77.0862 87.4021L73.944 89.2059L74.0992 86.4905C74.1897 85.9474 74.1057 85.4819 73.8471 85.094C73.5885 84.6931 73.1941 84.4798 72.6639 84.4539C72.1855 84.4151 71.7717 84.5444 71.4226 84.8418C71.0734 85.1392 70.8924 85.566 70.8795 86.122L70.7631 91.0486L68.8041 92.1929L63.5284 95.7424L63.9939 89.3999V87.1306L68.2222 84.5897C68.6877 84.2923 68.9593 83.9238 69.0369 83.4841C69.1274 83.0315 69.0433 82.6048 68.7847 82.204C68.4744 81.7643 68.08 81.5316 67.6016 81.5057C67.136 81.4669 66.6964 81.6221 66.2826 81.9712L63.9939 83.4841V79.8571C63.9939 79.2752 63.8258 78.8032 63.4896 78.4411C63.1534 78.0662 62.6944 77.8787 62.1125 77.8787C61.5435 77.8787 61.0845 78.0662 60.7354 78.4411C60.3992 78.8032 60.2311 79.2752 60.2311 79.8571V83.4841L57.9229 81.9712C57.4833 81.6221 57.0372 81.4669 56.5846 81.5057C56.132 81.5316 55.7441 81.7643 55.4209 82.204C55.1622 82.6048 55.0717 83.0315 55.1493 83.4841C55.2398 83.9238 55.5243 84.2858 56.0027 84.5703L60.2311 87.1306V89.3999L60.6772 95.7424L55.4015 92.1929L53.4425 91.0292L53.3261 86.122C53.3131 85.566 53.1321 85.1392 52.783 84.8418C52.4339 84.5444 52.0265 84.4151 51.561 84.4539C51.018 84.4798 50.6171 84.6931 50.3585 85.094C50.1128 85.4819 50.0288 85.9409 50.1063 86.4711L50.2809 89.2059L47.1388 87.4021C46.6345 87.1176 46.1302 87.0336 45.6259 87.15C45.1345 87.2663 44.753 87.5702 44.4815 88.0616C44.197 88.5659 44.1259 89.0572 44.2681 89.5357C44.4104 90.0141 44.7336 90.402 45.2379 90.6994L48.3607 92.5033L45.9362 93.7252C45.4319 93.9321 45.0698 94.2424 44.85 94.6562C44.6431 95.07 44.6561 95.5226 44.8888 96.0139C45.0957 96.4407 45.4125 96.7316 45.8392 96.8868C46.2789 97.029 46.7444 96.9708 47.2357 96.7122L51.5223 94.3459L53.5006 95.4709L59.2419 98.2445L53.5006 100.999L51.5416 102.143L47.2357 99.7574C46.7444 99.4988 46.2789 99.447 45.8392 99.6022C45.4125 99.7574 45.0957 100.042 44.8888 100.456C44.6561 100.96 44.6431 101.419 44.85 101.833C45.0698 102.234 45.4319 102.537 45.9362 102.744L48.3801 103.966L45.2573 105.79C44.753 106.074 44.4233 106.462 44.2681 106.953C44.1259 107.445 44.197 107.93 44.4815 108.408C44.766 108.925 45.1539 109.242 45.6453 109.358C46.1366 109.462 46.6345 109.365 47.1388 109.067L50.2809 107.283L50.1063 109.979C50.0158 110.522 50.0999 110.994 50.3585 111.395C50.6171 111.783 51.018 111.996 51.561 112.035C52.0265 112.061 52.4339 111.925 52.783 111.628C53.1321 111.33 53.3131 110.904 53.3261 110.348L53.4425 105.421L55.4015 104.296L60.6772 100.747L60.2311 107.07V109.339L56.0027 111.88C55.5243 112.177 55.2398 112.552 55.1493 113.005C55.0717 113.457 55.1622 113.878 55.4209 114.266C55.7312 114.705 56.1126 114.938 56.5652 114.964C57.0307 114.99 57.4833 114.835 57.9229 114.498L60.2311 112.985V116.613C60.2311 117.194 60.3992 117.673 60.7354 118.048C61.0845 118.423 61.5435 118.61 62.1125 118.61Z" fill="black"/>
<path d="M37.33 237.796C35.5179 237.796 34.022 237.564 32.842 237.101C31.6621 236.616 30.735 235.91 30.0608 234.983C29.4076 234.035 28.9441 232.876 28.6702 231.507C28.3963 230.116 28.2593 228.515 28.2593 226.703C28.2593 224.785 28.4068 223.131 28.7018 221.741C29.0178 220.329 29.5235 219.17 30.2188 218.264C30.9352 217.337 31.8623 216.652 33.0001 216.21C34.1589 215.746 35.5811 215.515 37.2668 215.515C38.1306 215.515 39.0261 215.567 39.9532 215.673C40.9013 215.757 41.7968 215.873 42.6396 216.02C43.5035 216.168 44.2199 216.315 44.7888 216.463L44.7256 219.876C44.1356 219.771 43.4192 219.676 42.5764 219.592C41.7547 219.507 40.9119 219.444 40.048 219.402C39.1841 219.339 38.4045 219.307 37.7092 219.307C36.6557 219.307 35.7918 219.444 35.1176 219.718C34.4644 219.992 33.9588 220.435 33.6006 221.046C33.2634 221.636 33.0317 222.405 32.9052 223.353C32.7788 224.28 32.7156 225.397 32.7156 226.703C32.7156 228.367 32.8315 229.758 33.0633 230.875C33.3161 231.97 33.7902 232.782 34.4855 233.308C35.2019 233.835 36.2238 234.098 37.5512 234.098C37.8883 234.098 38.2465 234.088 38.6258 234.067C39.0261 234.046 39.4054 234.014 39.7636 233.972C40.1428 233.93 40.4589 233.888 40.7117 233.846V229.136H38.1517V225.818H44.852V236.975C44.3884 237.038 43.8301 237.122 43.1769 237.227C42.5237 237.312 41.839 237.396 41.1226 237.48C40.4273 237.564 39.7425 237.638 39.0682 237.701C38.4151 237.765 37.8356 237.796 37.33 237.796Z" fill="black"/>
<path d="M54.4948 237.828C52.7459 237.828 51.3553 237.533 50.3229 236.943C49.3115 236.353 48.5846 235.457 48.1421 234.256C47.6997 233.055 47.4784 231.549 47.4784 229.737C47.4784 227.777 47.7523 226.176 48.3002 224.933C48.869 223.69 49.6908 222.773 50.7653 222.183C51.8399 221.572 53.1673 221.267 54.7476 221.267C57.0864 221.267 58.8457 221.857 60.0256 223.037C61.2266 224.217 61.8271 226.081 61.8271 228.631L61.6375 230.97H51.7135C51.7346 232.149 51.9769 233.034 52.4404 233.624C52.904 234.214 53.7046 234.509 54.8424 234.509C55.4956 234.509 56.212 234.499 56.9916 234.478C57.7711 234.436 58.5402 234.393 59.2987 234.351C60.0783 234.309 60.742 234.267 61.2898 234.225L61.3847 237.164C60.8579 237.248 60.1942 237.343 59.3935 237.449C58.5929 237.554 57.7606 237.638 56.8967 237.701C56.0539 237.786 55.2533 237.828 54.4948 237.828ZM51.7135 228.283H57.6237C57.6237 226.85 57.3919 225.85 56.9283 225.281C56.4859 224.712 55.759 224.427 54.7476 224.427C53.7573 224.427 52.9988 224.722 52.472 225.312C51.9663 225.902 51.7135 226.892 51.7135 228.283Z" fill="black"/>
<path d="M66.5158 237.48L63.4817 221.614H67.9696L70.024 233.909H70.4981L73.0581 221.962H77.1035L79.7583 233.909H80.2324L82.2868 221.614H86.4902L83.551 237.48H77.1983L74.9544 227.272L72.7104 237.48H66.5158Z" fill="black"/>
<path d="M92.9797 237.828C91.3362 237.828 90.0931 237.417 89.2503 236.595C88.4285 235.752 88.0177 234.488 88.0177 232.803C88.0177 231.623 88.2284 230.706 88.6498 230.053C89.0712 229.379 89.6927 228.894 90.5145 228.599C91.3573 228.283 92.3792 228.093 93.5802 228.03L97.436 227.683V226.734C97.436 225.976 97.2463 225.449 96.8671 225.154C96.4878 224.838 95.9295 224.68 95.192 224.68C94.6021 224.68 93.9173 224.701 93.1377 224.743C92.3792 224.785 91.6206 224.838 90.8621 224.901C90.1247 224.965 89.482 225.028 88.9342 225.091L88.8078 222.12C89.3556 221.994 90.0088 221.867 90.7673 221.741C91.5469 221.593 92.3581 221.477 93.2009 221.393C94.0437 221.309 94.8233 221.267 95.5397 221.267C96.8882 221.267 98.0154 221.435 98.9214 221.772C99.8274 222.11 100.512 222.668 100.976 223.448C101.439 224.206 101.671 225.238 101.671 226.545V233.782C101.713 234.077 101.871 234.309 102.145 234.478C102.419 234.625 102.735 234.731 103.093 234.794L102.998 237.701C102.493 237.722 101.998 237.733 101.513 237.733C101.028 237.733 100.618 237.701 100.28 237.638C99.7958 237.575 99.3744 237.449 99.0162 237.259C98.6791 237.069 98.4052 236.869 98.1945 236.658C97.8574 236.806 97.4044 236.975 96.8355 237.164C96.2666 237.354 95.645 237.512 94.9708 237.638C94.3176 237.765 93.6539 237.828 92.9797 237.828ZM93.991 234.699C94.3914 234.699 94.8128 234.657 95.2552 234.573C95.6977 234.488 96.1086 234.393 96.4878 234.288C96.8882 234.162 97.2042 234.046 97.436 233.94V230.306L94.2123 230.59C93.5169 230.653 93.0113 230.864 92.6952 231.222C92.4002 231.56 92.2527 232.044 92.2527 232.676C92.2527 233.308 92.3897 233.803 92.6636 234.162C92.9586 234.52 93.4011 234.699 93.991 234.699Z" fill="black"/>
<path d="M105.254 244.149V221.614H109.425L109.457 222.626C109.752 222.436 110.121 222.236 110.563 222.025C111.027 221.815 111.522 221.636 112.049 221.488C112.575 221.341 113.092 221.267 113.597 221.267C115.725 221.267 117.253 221.952 118.18 223.321C119.107 224.67 119.571 226.724 119.571 229.484C119.571 231.465 119.339 233.066 118.875 234.288C118.412 235.51 117.664 236.406 116.631 236.975C115.62 237.543 114.282 237.828 112.618 237.828C112.091 237.828 111.522 237.786 110.911 237.701C110.3 237.617 109.815 237.533 109.457 237.449V244.149H105.254ZM111.954 234.32C112.797 234.32 113.46 234.141 113.945 233.782C114.43 233.424 114.767 232.887 114.956 232.171C115.167 231.433 115.272 230.506 115.272 229.389C115.272 227.662 115.03 226.471 114.545 225.818C114.082 225.144 113.408 224.807 112.523 224.807C112.186 224.807 111.827 224.849 111.448 224.933C111.069 225.017 110.7 225.123 110.342 225.249C109.984 225.375 109.689 225.502 109.457 225.628V234.098C109.71 234.12 110.068 234.162 110.532 234.225C111.016 234.288 111.49 234.32 111.954 234.32Z" fill="black"/>
<path d="M122.316 244.149V221.614H126.488L126.519 222.626C126.814 222.436 127.183 222.236 127.626 222.025C128.089 221.815 128.584 221.636 129.111 221.488C129.638 221.341 130.154 221.267 130.66 221.267C132.788 221.267 134.315 221.952 135.242 223.321C136.169 224.67 136.633 226.724 136.633 229.484C136.633 231.465 136.401 233.066 135.938 234.288C135.474 235.51 134.726 236.406 133.694 236.975C132.682 237.543 131.344 237.828 129.68 237.828C129.153 237.828 128.584 237.786 127.973 237.701C127.362 237.617 126.878 237.533 126.519 237.449V244.149H122.316ZM129.016 234.32C129.859 234.32 130.523 234.141 131.007 233.782C131.492 233.424 131.829 232.887 132.019 232.171C132.229 231.433 132.335 230.506 132.335 229.389C132.335 227.662 132.092 226.471 131.608 225.818C131.144 225.144 130.47 224.807 129.585 224.807C129.248 224.807 128.89 224.849 128.51 224.933C128.131 225.017 127.762 225.123 127.404 225.249C127.046 225.375 126.751 225.502 126.519 225.628V234.098C126.772 234.12 127.13 234.162 127.594 234.225C128.079 234.288 128.553 234.32 129.016 234.32Z" fill="black"/>
<path d="M139.378 237.48V221.614H143.582V222.626C143.919 222.415 144.33 222.215 144.814 222.025C145.299 221.815 145.805 221.636 146.331 221.488C146.879 221.341 147.406 221.267 147.912 221.267C149.386 221.267 150.524 221.53 151.325 222.057C152.147 222.563 152.726 223.405 153.063 224.585C153.4 225.744 153.569 227.303 153.569 229.263V237.48H149.334V229.484C149.334 228.388 149.271 227.514 149.144 226.861C149.018 226.187 148.775 225.702 148.417 225.407C148.059 225.112 147.532 224.965 146.837 224.965C146.458 224.965 146.057 225.007 145.636 225.091C145.236 225.154 144.846 225.249 144.467 225.375C144.108 225.502 143.813 225.628 143.582 225.755V237.48H139.378Z" fill="black"/>
<path d="M163.134 237.828C161.385 237.828 159.995 237.533 158.962 236.943C157.951 236.353 157.224 235.457 156.781 234.256C156.339 233.055 156.118 231.549 156.118 229.737C156.118 227.777 156.392 226.176 156.94 224.933C157.508 223.69 158.33 222.773 159.405 222.183C160.479 221.572 161.807 221.267 163.387 221.267C165.726 221.267 167.485 221.857 168.665 223.037C169.866 224.217 170.467 226.081 170.467 228.631L170.277 230.97H160.353C160.374 232.149 160.616 233.034 161.08 233.624C161.543 234.214 162.344 234.509 163.482 234.509C164.135 234.509 164.851 234.499 165.631 234.478C166.411 234.436 167.18 234.393 167.938 234.351C168.718 234.309 169.381 234.267 169.929 234.225L170.024 237.164C169.497 237.248 168.834 237.343 168.033 237.449C167.232 237.554 166.4 237.638 165.536 237.701C164.693 237.786 163.893 237.828 163.134 237.828ZM160.353 228.283H166.263C166.263 226.85 166.031 225.85 165.568 225.281C165.125 224.712 164.398 224.427 163.387 224.427C162.397 224.427 161.638 224.722 161.111 225.312C160.606 225.902 160.353 226.892 160.353 228.283Z" fill="black"/>
<path d="M178.695 237.859C177.536 237.859 176.598 237.691 175.882 237.354C175.166 237.017 174.65 236.437 174.333 235.615C174.038 234.773 173.891 233.603 173.891 232.107V225.123H172.026V221.614H173.891V217.411H178.094V221.614H182.14V225.123H178.094V231.001C178.094 231.823 178.126 232.466 178.189 232.929C178.274 233.393 178.442 233.719 178.695 233.909C178.948 234.098 179.338 234.193 179.864 234.193C180.012 234.193 180.233 234.183 180.528 234.162C180.823 234.141 181.118 234.12 181.413 234.098C181.708 234.077 181.95 234.056 182.14 234.035L182.266 237.417C181.761 237.501 181.15 237.596 180.433 237.701C179.738 237.807 179.159 237.859 178.695 237.859Z" fill="black"/>
<path d="M29.3339 269.48V257.123H27.7536V253.614H29.3339V252.698C29.3339 251.202 29.4708 250.022 29.7447 249.158C30.0397 248.294 30.5349 247.683 31.2302 247.325C31.9255 246.967 32.8631 246.788 34.043 246.788C34.3802 246.788 34.7805 246.809 35.244 246.851C35.7286 246.872 36.1922 246.904 36.6347 246.946C37.0771 246.988 37.4142 247.03 37.646 247.072L37.6144 250.296C37.2773 250.296 36.898 250.296 36.4766 250.296C36.0763 250.275 35.7286 250.264 35.4337 250.264C34.9701 250.264 34.5909 250.338 34.2959 250.486C34.022 250.633 33.8218 250.875 33.6954 251.212C33.59 251.55 33.5374 252.034 33.5374 252.666V253.614H37.33V257.123H33.5374V269.48H29.3339Z" fill="black"/>
<path d="M44.432 269.828C43.0624 269.828 41.9984 269.543 41.2399 268.975C40.5024 268.385 39.9757 267.5 39.6596 266.32C39.3646 265.14 39.2171 263.654 39.2171 261.863V253.614H43.4206V261.674C43.4206 262.79 43.4733 263.675 43.5786 264.329C43.7051 264.982 43.9474 265.445 44.3056 265.719C44.6638 265.993 45.18 266.13 45.8542 266.13C46.5074 266.13 47.1184 266.046 47.6873 265.877C48.2562 265.709 48.7092 265.54 49.0463 265.372V253.614H53.2498V269.48H49.0779V268.5C48.3616 268.901 47.6452 269.227 46.9288 269.48C46.2335 269.712 45.4012 269.828 44.432 269.828ZM48.351 250.612V246.977H51.796V250.612H48.351ZM41.872 250.612V246.977H45.3169V250.612H41.872Z" fill="black"/>
<path d="M56.5918 269.48V253.614H60.7953V255.479C61.1535 255.205 61.5959 254.921 62.1227 254.626C62.6495 254.31 63.2183 254.025 63.8294 253.772C64.4615 253.499 65.062 253.319 65.6309 253.235V257.312C65.083 257.397 64.5036 257.544 63.8926 257.755C63.2816 257.944 62.7021 258.155 62.1543 258.387C61.6276 258.619 61.1745 258.829 60.7953 259.019V269.48H56.5918Z" fill="black"/>
<path d="M72.523 276.497L71.0376 273.273C71.775 272.872 72.365 272.514 72.8075 272.198C73.271 271.903 73.6187 271.587 73.8504 271.25C74.0822 270.934 74.2402 270.555 74.3245 270.112C74.4088 269.67 74.4509 269.101 74.4509 268.406V253.614H78.686V268.342C78.686 269.543 78.5912 270.544 78.4016 271.345C78.233 272.167 77.917 272.862 77.4534 273.431C77.0109 274.021 76.3894 274.548 75.5887 275.011C74.7881 275.475 73.7662 275.97 72.523 276.497ZM74.4509 251.054V247.483H78.686V251.054H74.4509Z" fill="black"/>
<path d="M88.4537 269.828C86.7049 269.828 85.3143 269.533 84.2819 268.943C83.2705 268.353 82.5436 267.457 82.1011 266.256C81.6586 265.055 81.4374 263.549 81.4374 261.737C81.4374 259.777 81.7113 258.176 82.2591 256.933C82.828 255.69 83.6498 254.773 84.7243 254.183C85.7989 253.572 87.1263 253.267 88.7066 253.267C91.0454 253.267 92.8047 253.857 93.9846 255.037C95.1856 256.217 95.7861 258.081 95.7861 260.631L95.5965 262.97H85.6725C85.6936 264.149 85.9359 265.034 86.3994 265.624C86.8629 266.214 87.6636 266.509 88.8014 266.509C89.4546 266.509 90.1709 266.499 90.9505 266.478C91.7301 266.436 92.4992 266.393 93.2577 266.351C94.0373 266.309 94.701 266.267 95.2488 266.225L95.3437 269.164C94.8169 269.248 94.1532 269.343 93.3525 269.449C92.5519 269.554 91.7196 269.638 90.8557 269.701C90.0129 269.786 89.2123 269.828 88.4537 269.828ZM85.6725 260.283H91.5826C91.5826 258.85 91.3509 257.85 90.8873 257.281C90.4449 256.712 89.7179 256.427 88.7066 256.427C87.7163 256.427 86.9578 256.722 86.431 257.312C85.9253 257.902 85.6725 258.892 85.6725 260.283Z" fill="black"/>
<path d="M103.793 269.828C103.035 269.828 102.339 269.733 101.707 269.543C101.075 269.375 100.517 269.101 100.032 268.722C99.5688 268.321 99.1685 267.805 98.8313 267.173C98.5153 266.541 98.273 265.772 98.1044 264.866C97.9359 263.939 97.8516 262.864 97.8516 261.642C97.8516 259.83 98.0728 258.303 98.5153 257.059C98.9788 255.816 99.7057 254.879 100.696 254.247C101.686 253.593 103.003 253.267 104.647 253.267C105.131 253.267 105.7 253.309 106.353 253.393C107.028 253.456 107.565 253.52 107.965 253.583V247.135H112.2V269.48H108.028L107.997 268.564C107.702 268.732 107.312 268.922 106.827 269.133C106.364 269.322 105.869 269.48 105.342 269.607C104.815 269.754 104.299 269.828 103.793 269.828ZM104.868 266.288C105.247 266.288 105.626 266.246 106.006 266.162C106.406 266.077 106.775 265.983 107.112 265.877C107.47 265.751 107.755 265.635 107.965 265.53V257.028C107.776 256.986 107.523 256.954 107.207 256.933C106.891 256.891 106.564 256.859 106.227 256.838C105.89 256.796 105.584 256.775 105.31 256.775C104.489 256.775 103.846 256.965 103.382 257.344C102.94 257.723 102.624 258.281 102.434 259.019C102.245 259.735 102.15 260.61 102.15 261.642C102.15 262.548 102.213 263.307 102.34 263.918C102.466 264.508 102.645 264.982 102.877 265.34C103.13 265.677 103.425 265.919 103.762 266.067C104.099 266.214 104.468 266.288 104.868 266.288Z" fill="black"/>
<path d="M121.961 269.828C120.212 269.828 118.822 269.533 117.789 268.943C116.778 268.353 116.051 267.457 115.608 266.256C115.166 265.055 114.945 263.549 114.945 261.737C114.945 259.777 115.219 258.176 115.766 256.933C116.335 255.69 117.157 254.773 118.232 254.183C119.306 253.572 120.634 253.267 122.214 253.267C124.553 253.267 126.312 253.857 127.492 255.037C128.693 256.217 129.293 258.081 129.293 260.631L129.104 262.97H119.18C119.201 264.149 119.443 265.034 119.907 265.624C120.37 266.214 121.171 266.509 122.309 266.509C122.962 266.509 123.678 266.499 124.458 266.478C125.237 266.436 126.007 266.393 126.765 266.351C127.545 266.309 128.208 266.267 128.756 266.225L128.851 269.164C128.324 269.248 127.661 269.343 126.86 269.449C126.059 269.554 125.227 269.638 124.363 269.701C123.52 269.786 122.72 269.828 121.961 269.828ZM119.18 260.283H125.09C125.09 258.85 124.858 257.85 124.395 257.281C123.952 256.712 123.225 256.427 122.214 256.427C121.224 256.427 120.465 256.722 119.938 257.312C119.433 257.902 119.18 258.892 119.18 260.283Z" fill="black"/>
<path d="M31.2934 301.48L27.6272 279.894H32.0203L34.6751 297.277H35.4337L38.7206 280.115H43.6194L46.9695 297.277H47.728L50.2248 279.894H54.6496L51.0466 301.48H44.1251L41.0594 284.35H41.2174L38.1201 301.48H31.2934Z" fill="#0091FF"/>
<path d="M63.3837 301.828C61.6349 301.828 60.2442 301.533 59.2118 300.943C58.2004 300.353 57.4735 299.457 57.0311 298.256C56.5886 297.055 56.3674 295.549 56.3674 293.737C56.3674 291.777 56.6413 290.176 57.1891 288.933C57.758 287.69 58.5797 286.773 59.6543 286.183C60.7289 285.572 62.0563 285.267 63.6365 285.267C65.9753 285.267 67.7347 285.857 68.9146 287.037C70.1156 288.217 70.7161 290.081 70.7161 292.631L70.5264 294.97H60.6024C60.6235 296.149 60.8658 297.034 61.3294 297.624C61.7929 298.214 62.5936 298.509 63.7313 298.509C64.3845 298.509 65.1009 298.499 65.8805 298.478C66.6601 298.436 67.4291 298.393 68.1877 298.351C68.9673 298.309 69.631 298.267 70.1788 298.225L70.2736 301.164C69.7468 301.248 69.0831 301.343 68.2825 301.449C67.4818 301.554 66.6495 301.638 65.7857 301.701C64.9429 301.786 64.1422 301.828 63.3837 301.828ZM60.6024 292.283H66.5126C66.5126 290.85 66.2808 289.85 65.8173 289.281C65.3748 288.712 64.6479 288.427 63.6365 288.427C62.6462 288.427 61.8877 288.722 61.361 289.312C60.8553 289.902 60.6024 290.892 60.6024 292.283Z" fill="#0091FF"/>
<path d="M78.9445 301.859C77.7857 301.859 76.848 301.691 76.1317 301.354C75.4153 301.017 74.8991 300.437 74.583 299.615C74.288 298.773 74.1405 297.603 74.1405 296.107V289.123H72.2758V285.614H74.1405V281.411H78.344V285.614H82.3895V289.123H78.344V295.001C78.344 295.823 78.3756 296.466 78.4388 296.929C78.5231 297.393 78.6917 297.719 78.9445 297.909C79.1974 298.098 79.5872 298.193 80.1139 298.193C80.2614 298.193 80.4826 298.183 80.7776 298.162C81.0726 298.141 81.3676 298.12 81.6626 298.098C81.9575 298.077 82.1998 298.056 82.3895 298.035L82.5159 301.417C82.0102 301.501 81.3992 301.596 80.6828 301.701C79.9875 301.807 79.4081 301.859 78.9445 301.859Z" fill="#0091FF"/>
<path d="M90.1735 301.859C89.0146 301.859 88.077 301.691 87.3606 301.354C86.6442 301.017 86.128 300.437 85.812 299.615C85.517 298.773 85.3695 297.603 85.3695 296.107V289.123H83.5048V285.614H85.3695V281.411H89.573V285.614H93.6184V289.123H89.573V295.001C89.573 295.823 89.6046 296.466 89.6678 296.929C89.7521 297.393 89.9206 297.719 90.1735 297.909C90.4263 298.098 90.8161 298.193 91.3429 298.193C91.4904 298.193 91.7116 298.183 92.0066 298.162C92.3015 298.141 92.5965 298.12 92.8915 298.098C93.1865 298.077 93.4288 298.056 93.6184 298.035L93.7449 301.417C93.2392 301.501 92.6281 301.596 91.9118 301.701C91.2164 301.807 90.637 301.859 90.1735 301.859Z" fill="#0091FF"/>
<path d="M102.256 301.828C100.507 301.828 99.1163 301.533 98.0839 300.943C97.0725 300.353 96.3456 299.457 95.9031 298.256C95.4607 297.055 95.2394 295.549 95.2394 293.737C95.2394 291.777 95.5134 290.176 96.0612 288.933C96.6301 287.69 97.4518 286.773 98.5264 286.183C99.6009 285.572 100.928 285.267 102.509 285.267C104.847 285.267 106.607 285.857 107.787 287.037C108.988 288.217 109.588 290.081 109.588 292.631L109.399 294.97H99.4745C99.4956 296.149 99.7379 297.034 100.201 297.624C100.665 298.214 101.466 298.509 102.603 298.509C103.257 298.509 103.973 298.499 104.753 298.478C105.532 298.436 106.301 298.393 107.06 298.351C107.839 298.309 108.503 298.267 109.051 298.225L109.146 301.164C108.619 301.248 107.955 301.343 107.155 301.449C106.354 301.554 105.522 301.638 104.658 301.701C103.815 301.786 103.014 301.828 102.256 301.828ZM99.4745 292.283H105.385C105.385 290.85 105.153 289.85 104.689 289.281C104.247 288.712 103.52 288.427 102.509 288.427C101.518 288.427 100.76 288.722 100.233 289.312C99.7274 289.902 99.4745 290.892 99.4745 292.283Z" fill="#0091FF"/>
<path d="M112.254 301.48V285.614H116.458V287.479C116.816 287.205 117.258 286.921 117.785 286.626C118.312 286.31 118.881 286.025 119.492 285.772C120.124 285.499 120.724 285.319 121.293 285.235V289.312C120.745 289.397 120.166 289.544 119.555 289.755C118.944 289.944 118.364 290.155 117.817 290.387C117.29 290.619 116.837 290.829 116.458 291.019V301.48H112.254Z" fill="#0091FF"/>
<path d="M123.486 301.48V279.135H127.689V301.48H123.486Z" fill="#0091FF"/>
<path d="M135.303 301.828C133.659 301.828 132.416 301.417 131.573 300.595C130.752 299.752 130.341 298.488 130.341 296.803C130.341 295.623 130.552 294.706 130.973 294.053C131.394 293.379 132.016 292.894 132.838 292.599C133.68 292.283 134.702 292.093 135.903 292.03L139.759 291.683V290.734C139.759 289.976 139.57 289.449 139.19 289.154C138.811 288.838 138.253 288.68 137.515 288.68C136.925 288.68 136.24 288.701 135.461 288.743C134.702 288.785 133.944 288.838 133.185 288.901C132.448 288.965 131.805 289.028 131.257 289.091L131.131 286.12C131.679 285.994 132.332 285.867 133.091 285.741C133.87 285.593 134.681 285.477 135.524 285.393C136.367 285.309 137.147 285.267 137.863 285.267C139.211 285.267 140.339 285.435 141.245 285.772C142.151 286.11 142.835 286.668 143.299 287.448C143.763 288.206 143.994 289.238 143.994 290.545V297.782C144.036 298.077 144.194 298.309 144.468 298.478C144.742 298.625 145.058 298.731 145.417 298.794L145.322 301.701C144.816 301.723 144.321 301.733 143.836 301.733C143.352 301.733 142.941 301.701 142.604 301.638C142.119 301.575 141.698 301.449 141.339 301.259C141.002 301.069 140.728 300.869 140.518 300.658C140.181 300.806 139.728 300.975 139.159 301.164C138.59 301.354 137.968 301.512 137.294 301.638C136.641 301.765 135.977 301.828 135.303 301.828ZM136.314 298.699C136.715 298.699 137.136 298.657 137.578 298.573C138.021 298.488 138.432 298.393 138.811 298.288C139.211 298.162 139.527 298.046 139.759 297.94V294.306L136.535 294.59C135.84 294.653 135.334 294.864 135.018 295.222C134.723 295.56 134.576 296.044 134.576 296.676C134.576 297.308 134.713 297.803 134.987 298.162C135.282 298.52 135.724 298.699 136.314 298.699Z" fill="#0091FF"/>
<path d="M154.562 308.718C152.876 308.718 151.464 308.591 150.326 308.339C149.21 308.086 148.367 307.622 147.798 306.948C147.229 306.295 146.945 305.347 146.945 304.103C146.945 303.556 147.018 303.06 147.166 302.618C147.334 302.197 147.587 301.796 147.924 301.417C148.283 301.038 148.725 300.648 149.252 300.248C148.957 300.037 148.715 299.731 148.525 299.331C148.356 298.91 148.272 298.457 148.272 297.972C148.272 297.719 148.42 297.35 148.715 296.866C149.031 296.36 149.336 295.918 149.631 295.538C149.21 295.349 148.809 295.075 148.43 294.717C148.051 294.337 147.735 293.832 147.482 293.2C147.25 292.568 147.134 291.756 147.134 290.766C147.134 288.764 147.703 287.353 148.841 286.531C150 285.688 151.643 285.267 153.771 285.267C154.319 285.267 154.909 285.309 155.541 285.393C156.173 285.477 156.679 285.562 157.058 285.646L162.21 285.551V288.396L159.808 288.364C159.998 288.617 160.166 288.944 160.314 289.344C160.482 289.723 160.566 290.197 160.566 290.766C160.566 292.22 160.314 293.347 159.808 294.148C159.323 294.948 158.586 295.507 157.596 295.823C156.605 296.118 155.352 296.265 153.835 296.265C153.666 296.265 153.434 296.255 153.139 296.234C152.844 296.192 152.602 296.16 152.412 296.139C152.328 296.35 152.244 296.592 152.16 296.866C152.075 297.119 152.033 297.298 152.033 297.403C152.033 297.677 152.117 297.888 152.286 298.035C152.476 298.183 152.844 298.288 153.392 298.351C153.961 298.393 154.814 298.414 155.952 298.414C157.448 298.414 158.639 298.551 159.523 298.825C160.43 299.099 161.072 299.584 161.451 300.279C161.831 300.975 162.02 301.954 162.02 303.218C162.02 305.094 161.357 306.474 160.029 307.359C158.723 308.265 156.9 308.718 154.562 308.718ZM154.34 305.589C155.647 305.589 156.584 305.431 157.153 305.115C157.743 304.82 158.038 304.325 158.038 303.629C158.038 303.082 157.933 302.681 157.722 302.428C157.532 302.176 157.206 302.007 156.742 301.923C156.279 301.859 155.647 301.828 154.846 301.828C154.635 301.828 154.382 301.817 154.087 301.796C153.792 301.796 153.487 301.786 153.171 301.765C152.876 301.765 152.602 301.754 152.349 301.733C152.117 301.712 151.949 301.701 151.843 301.701C151.38 302.017 151.064 302.302 150.895 302.555C150.727 302.829 150.642 303.187 150.642 303.629C150.642 304.114 150.758 304.493 150.99 304.767C151.222 305.062 151.601 305.273 152.128 305.399C152.676 305.526 153.413 305.589 154.34 305.589ZM153.803 293.294C154.772 293.294 155.457 293.105 155.857 292.726C156.279 292.325 156.489 291.672 156.489 290.766C156.489 289.86 156.279 289.207 155.857 288.807C155.457 288.406 154.772 288.206 153.803 288.206C152.876 288.206 152.202 288.406 151.78 288.807C151.38 289.207 151.18 289.86 151.18 290.766C151.18 291.672 151.38 292.325 151.78 292.726C152.202 293.105 152.876 293.294 153.803 293.294Z" fill="#0091FF"/>
<path d="M170.715 301.828C168.967 301.828 167.576 301.533 166.544 300.943C165.532 300.353 164.805 299.457 164.363 298.256C163.92 297.055 163.699 295.549 163.699 293.737C163.699 291.777 163.973 290.176 164.521 288.933C165.09 287.69 165.911 286.773 166.986 286.183C168.061 285.572 169.388 285.267 170.968 285.267C173.307 285.267 175.066 285.857 176.246 287.037C177.447 288.217 178.048 290.081 178.048 292.631L177.858 294.97H167.934C167.955 296.149 168.198 297.034 168.661 297.624C169.125 298.214 169.925 298.509 171.063 298.509C171.716 298.509 172.433 298.499 173.212 298.478C173.992 298.436 174.761 298.393 175.519 298.351C176.299 298.309 176.963 298.267 177.511 298.225L177.605 301.164C177.079 301.248 176.415 301.343 175.614 301.449C174.814 301.554 173.981 301.638 173.117 301.701C172.275 301.786 171.474 301.828 170.715 301.828ZM167.934 292.283H173.844C173.844 290.85 173.613 289.85 173.149 289.281C172.707 288.712 171.98 288.427 170.968 288.427C169.978 288.427 169.219 288.722 168.693 289.312C168.187 289.902 167.934 290.892 167.934 292.283Z" fill="#0091FF"/>
<rect x="305.552" width="288.895" height="335.118" rx="27.3187" fill="white"/>
<path d="M338.004 101.05C338.004 101.503 338.159 101.878 338.47 102.175C338.78 102.459 339.168 102.602 339.634 102.602H351.368L345.239 118.817C345.019 119.399 344.98 119.896 345.123 120.31C345.265 120.737 345.511 121.041 345.86 121.222C346.222 121.416 346.623 121.455 347.062 121.338C347.502 121.235 347.916 120.95 348.304 120.485L367.292 97.3841C367.667 96.9186 367.855 96.4466 367.855 95.9682C367.855 95.5156 367.7 95.1471 367.389 94.8626C367.092 94.5652 366.704 94.4165 366.225 94.4165H354.491L360.62 78.2014C360.84 77.6195 360.879 77.1217 360.736 76.7079C360.594 76.2942 360.342 75.9967 359.98 75.8157C359.631 75.6218 359.236 75.5765 358.797 75.6799C358.357 75.7834 357.943 76.0679 357.555 76.5334L338.567 99.634C338.192 100.1 338.004 100.572 338.004 101.05Z" fill="#3FBC33"/>
<path d="M342.882 237.771C341.07 237.771 339.574 237.54 338.395 237.076C337.215 236.592 336.288 235.886 335.613 234.959C334.96 234.01 334.497 232.852 334.223 231.482C333.949 230.091 333.812 228.49 333.812 226.678C333.812 224.761 333.959 223.107 334.254 221.716C334.57 220.304 335.076 219.146 335.771 218.24C336.488 217.312 337.415 216.628 338.553 216.185C339.711 215.722 341.134 215.49 342.819 215.49C343.683 215.49 344.579 215.543 345.506 215.648C346.454 215.732 347.349 215.848 348.192 215.996C349.056 216.143 349.772 216.291 350.341 216.438L350.278 219.851C349.688 219.746 348.972 219.651 348.129 219.567C347.307 219.483 346.464 219.419 345.601 219.377C344.737 219.314 343.957 219.282 343.262 219.282C342.208 219.282 341.344 219.419 340.67 219.693C340.017 219.967 339.511 220.41 339.153 221.021C338.816 221.611 338.584 222.38 338.458 223.328C338.331 224.255 338.268 225.372 338.268 226.678C338.268 228.343 338.384 229.733 338.616 230.85C338.869 231.946 339.343 232.757 340.038 233.284C340.754 233.81 341.776 234.074 343.104 234.074C343.441 234.074 343.799 234.063 344.178 234.042C344.579 234.021 344.958 233.989 345.316 233.947C345.695 233.905 346.011 233.863 346.264 233.821V229.112H343.704V225.793H350.405V236.95C349.941 237.013 349.383 237.097 348.729 237.203C348.076 237.287 347.391 237.371 346.675 237.455C345.98 237.54 345.295 237.613 344.621 237.677C343.968 237.74 343.388 237.771 342.882 237.771Z" fill="black"/>
<path d="M360.047 237.803C358.298 237.803 356.908 237.508 355.875 236.918C354.864 236.328 354.137 235.433 353.695 234.232C353.252 233.031 353.031 231.524 353.031 229.712C353.031 227.753 353.305 226.151 353.853 224.908C354.422 223.665 355.243 222.748 356.318 222.159C357.392 221.548 358.72 221.242 360.3 221.242C362.639 221.242 364.398 221.832 365.578 223.012C366.779 224.192 367.38 226.056 367.38 228.606L367.19 230.945H357.266C357.287 232.125 357.529 233.01 357.993 233.6C358.456 234.19 359.257 234.485 360.395 234.485C361.048 234.485 361.764 234.474 362.544 234.453C363.324 234.411 364.093 234.369 364.851 234.326C365.631 234.284 366.295 234.242 366.842 234.2L366.937 237.139C366.41 237.224 365.747 237.318 364.946 237.424C364.145 237.529 363.313 237.613 362.449 237.677C361.606 237.761 360.806 237.803 360.047 237.803ZM357.266 228.258H363.176C363.176 226.826 362.944 225.825 362.481 225.256C362.038 224.687 361.311 224.402 360.3 224.402C359.31 224.402 358.551 224.697 358.025 225.287C357.519 225.877 357.266 226.868 357.266 228.258Z" fill="black"/>
<path d="M370.046 237.455V221.59H374.249V223.454C374.607 223.18 375.05 222.896 375.577 222.601C376.103 222.285 376.672 222.001 377.283 221.748C377.915 221.474 378.516 221.295 379.085 221.21V225.287C378.537 225.372 377.957 225.519 377.346 225.73C376.735 225.92 376.156 226.13 375.608 226.362C375.081 226.594 374.628 226.804 374.249 226.994V237.455H370.046Z" fill="black"/>
<path d="M381.151 237.455V221.59H385.355V237.455H381.151ZM381.151 219.061V215.458H385.386V219.061H381.151Z" fill="black"/>
<path d="M388.738 237.455V221.59H392.942V222.601C393.279 222.39 393.69 222.19 394.174 222.001C394.659 221.79 395.164 221.611 395.691 221.463C396.239 221.316 396.766 221.242 397.271 221.242C398.746 221.242 399.884 221.505 400.685 222.032C401.507 222.538 402.086 223.381 402.423 224.561C402.76 225.719 402.929 227.279 402.929 229.238V237.455H398.694V229.459C398.694 228.364 398.63 227.489 398.504 226.836C398.378 226.162 398.135 225.677 397.777 225.382C397.419 225.087 396.892 224.94 396.197 224.94C395.818 224.94 395.417 224.982 394.996 225.066C394.596 225.129 394.206 225.224 393.827 225.351C393.468 225.477 393.173 225.603 392.942 225.73V237.455H388.738Z" fill="black"/>
<path d="M413.063 244.693C411.377 244.693 409.966 244.567 408.828 244.314C407.711 244.061 406.868 243.597 406.299 242.923C405.731 242.27 405.446 241.322 405.446 240.079C405.446 239.531 405.52 239.036 405.667 238.593C405.836 238.172 406.089 237.771 406.426 237.392C406.784 237.013 407.226 236.623 407.753 236.223C407.458 236.012 407.216 235.707 407.026 235.306C406.858 234.885 406.773 234.432 406.773 233.947C406.773 233.694 406.921 233.326 407.216 232.841C407.532 232.335 407.838 231.893 408.133 231.514C407.711 231.324 407.311 231.05 406.932 230.692C406.552 230.313 406.236 229.807 405.983 229.175C405.752 228.543 405.636 227.732 405.636 226.741C405.636 224.74 406.205 223.328 407.342 222.506C408.501 221.663 410.145 221.242 412.273 221.242C412.821 221.242 413.411 221.284 414.043 221.368C414.675 221.453 415.18 221.537 415.56 221.621L420.711 221.526V224.371L418.309 224.339C418.499 224.592 418.668 224.919 418.815 225.319C418.984 225.698 419.068 226.172 419.068 226.741C419.068 228.195 418.815 229.322 418.309 230.123C417.825 230.924 417.087 231.482 416.097 231.798C415.107 232.093 413.853 232.241 412.336 232.241C412.167 232.241 411.936 232.23 411.641 232.209C411.346 232.167 411.103 232.135 410.914 232.114C410.829 232.325 410.745 232.567 410.661 232.841C410.577 233.094 410.535 233.273 410.535 233.378C410.535 233.652 410.619 233.863 410.787 234.01C410.977 234.158 411.346 234.263 411.894 234.326C412.462 234.369 413.316 234.39 414.454 234.39C415.95 234.39 417.14 234.527 418.025 234.801C418.931 235.074 419.574 235.559 419.953 236.254C420.332 236.95 420.522 237.929 420.522 239.194C420.522 241.069 419.858 242.449 418.531 243.334C417.224 244.24 415.402 244.693 413.063 244.693ZM412.842 241.564C414.148 241.564 415.086 241.406 415.655 241.09C416.244 240.795 416.539 240.3 416.539 239.605C416.539 239.057 416.434 238.656 416.223 238.404C416.034 238.151 415.707 237.982 415.244 237.898C414.78 237.835 414.148 237.803 413.347 237.803C413.137 237.803 412.884 237.793 412.589 237.771C412.294 237.771 411.988 237.761 411.672 237.74C411.377 237.74 411.103 237.729 410.851 237.708C410.619 237.687 410.45 237.677 410.345 237.677C409.881 237.993 409.565 238.277 409.397 238.53C409.228 238.804 409.144 239.162 409.144 239.605C409.144 240.089 409.26 240.468 409.492 240.742C409.723 241.037 410.103 241.248 410.629 241.374C411.177 241.501 411.915 241.564 412.842 241.564ZM412.304 229.27C413.274 229.27 413.958 229.08 414.359 228.701C414.78 228.3 414.991 227.647 414.991 226.741C414.991 225.835 414.78 225.182 414.359 224.782C413.958 224.381 413.274 224.181 412.304 224.181C411.377 224.181 410.703 224.381 410.282 224.782C409.881 225.182 409.681 225.835 409.681 226.741C409.681 227.647 409.881 228.3 410.282 228.701C410.703 229.08 411.377 229.27 412.304 229.27Z" fill="black"/>
<path d="M429.217 237.803C427.468 237.803 426.077 237.508 425.045 236.918C424.034 236.328 423.307 235.433 422.864 234.232C422.422 233.031 422.2 231.524 422.2 229.712C422.2 227.753 422.474 226.151 423.022 224.908C423.591 223.665 424.413 222.748 425.487 222.159C426.562 221.548 427.889 221.242 429.47 221.242C431.808 221.242 433.568 221.832 434.748 223.012C435.949 224.192 436.549 226.056 436.549 228.606L436.36 230.945H426.436C426.457 232.125 426.699 233.01 427.162 233.6C427.626 234.19 428.427 234.485 429.564 234.485C430.218 234.485 430.934 234.474 431.714 234.453C432.493 234.411 433.262 234.369 434.021 234.326C434.8 234.284 435.464 234.242 436.012 234.2L436.107 237.139C435.58 237.224 434.916 237.318 434.116 237.424C433.315 237.529 432.483 237.613 431.619 237.677C430.776 237.761 429.975 237.803 429.217 237.803ZM426.436 228.258H432.346C432.346 226.826 432.114 225.825 431.65 225.256C431.208 224.687 430.481 224.402 429.47 224.402C428.479 224.402 427.721 224.697 427.194 225.287C426.688 225.877 426.436 226.868 426.436 228.258Z" fill="black"/>
<path d="M439.215 237.455V221.59H443.419V223.454C443.777 223.18 444.219 222.896 444.746 222.601C445.273 222.285 445.842 222.001 446.453 221.748C447.085 221.474 447.685 221.295 448.254 221.21V225.287C447.706 225.372 447.127 225.519 446.516 225.73C445.905 225.92 445.325 226.13 444.778 226.362C444.251 226.594 443.798 226.804 443.419 226.994V237.455H439.215Z" fill="black"/>
<path d="M341.492 269.803C340.691 269.803 339.817 269.75 338.869 269.645C337.92 269.561 336.993 269.455 336.087 269.329C335.202 269.181 334.444 269.055 333.812 268.95L334.096 265.505C334.749 265.589 335.508 265.684 336.372 265.789C337.236 265.873 338.089 265.947 338.932 266.01C339.796 266.074 340.544 266.105 341.176 266.105C342.377 266.105 343.251 265.873 343.799 265.41C344.347 264.925 344.621 264.177 344.621 263.166C344.621 262.618 344.505 262.186 344.273 261.87C344.062 261.533 343.673 261.27 343.104 261.08C342.535 260.869 341.745 260.669 340.733 260.48C339.048 260.164 337.678 259.774 336.625 259.31C335.592 258.847 334.834 258.193 334.349 257.351C333.886 256.508 333.654 255.381 333.654 253.969C333.654 252.325 333.959 251.04 334.57 250.113C335.181 249.165 336.056 248.491 337.194 248.09C338.331 247.69 339.669 247.49 341.207 247.49C341.903 247.49 342.693 247.532 343.578 247.616C344.484 247.679 345.369 247.764 346.233 247.869C347.118 247.974 347.866 248.09 348.477 248.217L348.287 251.693C347.655 251.609 346.917 251.535 346.075 251.472C345.253 251.388 344.431 251.314 343.609 251.251C342.809 251.188 342.124 251.156 341.555 251.156C340.354 251.156 339.469 251.346 338.9 251.725C338.331 252.104 338.047 252.715 338.047 253.558C338.047 254.19 338.173 254.675 338.426 255.012C338.679 255.349 339.1 255.623 339.69 255.834C340.301 256.044 341.134 256.266 342.187 256.497C343.43 256.771 344.484 257.066 345.348 257.382C346.233 257.698 346.938 258.078 347.465 258.52C348.013 258.963 348.413 259.531 348.666 260.227C348.919 260.922 349.045 261.796 349.045 262.85C349.045 264.536 348.74 265.895 348.129 266.927C347.539 267.938 346.675 268.676 345.537 269.139C344.421 269.582 343.072 269.803 341.492 269.803Z" fill="#3FBC33"/>
<path d="M357.249 269.835C356.091 269.835 355.153 269.666 354.437 269.329C353.72 268.992 353.204 268.412 352.888 267.591C352.593 266.748 352.446 265.579 352.446 264.083V257.098H350.581V253.59H352.446V249.386H356.649V253.59H360.694V257.098H356.649V262.976C356.649 263.798 356.681 264.441 356.744 264.904C356.828 265.368 356.997 265.694 357.249 265.884C357.502 266.074 357.892 266.168 358.419 266.168C358.566 266.168 358.788 266.158 359.083 266.137C359.378 266.116 359.673 266.095 359.968 266.074C360.263 266.053 360.505 266.032 360.694 266.01L360.821 269.392C360.315 269.476 359.704 269.571 358.988 269.677C358.292 269.782 357.713 269.835 357.249 269.835Z" fill="#3FBC33"/>
<path d="M362.916 269.455V253.59H367.119V255.454C367.478 255.18 367.92 254.896 368.447 254.601C368.974 254.285 369.542 254.001 370.154 253.748C370.786 253.474 371.386 253.295 371.955 253.21V257.287C371.407 257.372 370.828 257.519 370.217 257.73C369.606 257.92 369.026 258.13 368.478 258.362C367.952 258.594 367.499 258.804 367.119 258.994V269.455H362.916Z" fill="#3FBC33"/>
<path d="M380.848 269.803C379.057 269.803 377.614 269.508 376.518 268.918C375.444 268.328 374.664 267.422 374.179 266.2C373.695 264.957 373.453 263.356 373.453 261.396C373.453 259.5 373.705 257.962 374.211 256.782C374.717 255.581 375.517 254.696 376.613 254.127C377.709 253.537 379.12 253.242 380.848 253.242C382.597 253.242 384.009 253.537 385.083 254.127C386.179 254.696 386.98 255.581 387.485 256.782C388.012 257.962 388.275 259.5 388.275 261.396C388.275 263.356 388.033 264.957 387.548 266.2C387.064 267.422 386.274 268.328 385.178 268.918C384.103 269.508 382.66 269.803 380.848 269.803ZM380.848 266.326C381.733 266.326 382.397 266.168 382.839 265.852C383.282 265.515 383.577 264.989 383.724 264.272C383.893 263.535 383.977 262.576 383.977 261.396C383.977 260.237 383.882 259.321 383.693 258.646C383.503 257.951 383.187 257.456 382.744 257.161C382.302 256.866 381.67 256.719 380.848 256.719C380.047 256.719 379.415 256.866 378.952 257.161C378.509 257.456 378.193 257.951 378.004 258.646C377.814 259.321 377.719 260.237 377.719 261.396C377.719 262.576 377.793 263.535 377.94 264.272C378.109 264.989 378.415 265.515 378.857 265.852C379.3 266.168 379.963 266.326 380.848 266.326Z" fill="#3FBC33"/>
<path d="M391.022 269.455V253.59H395.226V254.601C395.71 254.306 396.363 254.011 397.185 253.716C398.007 253.4 398.786 253.242 399.524 253.242C400.493 253.242 401.283 253.379 401.894 253.653C402.505 253.906 403.011 254.285 403.411 254.791C403.791 254.559 404.265 254.327 404.833 254.095C405.402 253.864 406.024 253.663 406.698 253.495C407.372 253.326 408.026 253.242 408.658 253.242C410.217 253.242 411.407 253.516 412.229 254.064C413.051 254.612 413.62 255.475 413.936 256.655C414.252 257.814 414.41 259.331 414.41 261.206V269.455H410.206V261.586C410.206 260.49 410.143 259.605 410.017 258.931C409.911 258.236 409.68 257.73 409.321 257.414C408.984 257.098 408.468 256.94 407.773 256.94C407.162 256.94 406.561 257.024 405.971 257.193C405.381 257.361 404.918 257.53 404.581 257.698C404.686 258.141 404.76 258.71 404.802 259.405C404.865 260.1 404.897 260.827 404.897 261.586V269.455H400.693V261.649C400.693 260.532 400.63 259.626 400.504 258.931C400.398 258.236 400.166 257.73 399.808 257.414C399.45 257.098 398.934 256.94 398.26 256.94C397.67 256.94 397.09 257.024 396.521 257.193C395.974 257.361 395.542 257.53 395.226 257.698V269.455H391.022Z" fill="#3FBC33"/>
<path d="M420.118 269.455L416.357 253.59H420.877L423.532 265.884H424.448L427.166 253.59H431.433L427.672 269.455H420.118Z" fill="#3FBC33"/>
<path d="M439.927 269.803C438.178 269.803 436.787 269.508 435.755 268.918C434.744 268.328 434.017 267.433 433.574 266.232C433.132 265.031 432.91 263.524 432.91 261.712C432.91 259.753 433.184 258.151 433.732 256.908C434.301 255.665 435.123 254.748 436.197 254.159C437.272 253.547 438.599 253.242 440.18 253.242C442.518 253.242 444.278 253.832 445.458 255.012C446.659 256.192 447.259 258.056 447.259 260.606L447.07 262.945H437.146C437.167 264.125 437.409 265.01 437.872 265.6C438.336 266.19 439.137 266.485 440.274 266.485C440.928 266.485 441.644 266.474 442.424 266.453C443.203 266.411 443.972 266.369 444.731 266.326C445.51 266.284 446.174 266.242 446.722 266.2L446.817 269.139C446.29 269.224 445.626 269.318 444.826 269.424C444.025 269.529 443.193 269.613 442.329 269.677C441.486 269.761 440.685 269.803 439.927 269.803ZM437.146 260.258H443.056C443.056 258.826 442.824 257.825 442.36 257.256C441.918 256.687 441.191 256.402 440.18 256.402C439.189 256.402 438.431 256.697 437.904 257.287C437.398 257.877 437.146 258.868 437.146 260.258Z" fill="#3FBC33"/>
<path d="M449.925 269.455V253.59H454.129V255.454C454.487 255.18 454.929 254.896 455.456 254.601C455.983 254.285 456.552 254.001 457.163 253.748C457.795 253.474 458.395 253.295 458.964 253.21V257.287C458.416 257.372 457.837 257.519 457.226 257.73C456.615 257.92 456.035 258.13 455.488 258.362C454.961 258.594 454.508 258.804 454.129 258.994V269.455H449.925Z" fill="#3FBC33"/>
<path d="M467.352 269.803C466.825 269.803 466.182 269.782 465.424 269.74C464.665 269.698 463.886 269.634 463.085 269.55C462.305 269.466 461.61 269.392 460.999 269.329V247.111H465.234V254.095C465.719 253.906 466.351 253.716 467.13 253.526C467.91 253.337 468.637 253.242 469.311 253.242C470.786 253.242 471.955 253.547 472.819 254.159C473.704 254.748 474.336 255.633 474.716 256.813C475.095 257.993 475.284 259.479 475.284 261.27C475.284 263.377 475.042 265.062 474.558 266.326C474.094 267.57 473.283 268.465 472.124 269.013C470.965 269.54 469.374 269.803 467.352 269.803ZM467.383 266.263C468.416 266.263 469.185 266.084 469.69 265.726C470.196 265.347 470.533 264.788 470.702 264.051C470.891 263.313 470.986 262.407 470.986 261.333C470.986 260.237 470.902 259.363 470.733 258.71C470.565 258.035 470.28 257.551 469.88 257.256C469.501 256.94 468.963 256.782 468.268 256.782C467.741 256.782 467.194 256.856 466.625 257.003C466.056 257.15 465.592 257.287 465.234 257.414V266.137C465.55 266.158 465.919 266.19 466.34 266.232C466.762 266.253 467.109 266.263 467.383 266.263Z" fill="#3FBC33"/>
<path d="M478.062 269.455V253.59H482.266V255.454C482.624 255.18 483.066 254.896 483.593 254.601C484.12 254.285 484.689 254.001 485.3 253.748C485.932 253.474 486.532 253.295 487.101 253.21V257.287C486.553 257.372 485.974 257.519 485.363 257.73C484.752 257.92 484.172 258.13 483.625 258.362C483.098 258.594 482.645 258.804 482.266 258.994V269.455H478.062Z" fill="#3FBC33"/>
<path d="M493.308 269.803C491.664 269.803 490.421 269.392 489.578 268.57C488.757 267.728 488.346 266.463 488.346 264.778C488.346 263.598 488.557 262.681 488.978 262.028C489.399 261.354 490.021 260.869 490.843 260.574C491.685 260.258 492.707 260.069 493.908 260.005L497.764 259.658V258.71C497.764 257.951 497.574 257.424 497.195 257.129C496.816 256.813 496.258 256.655 495.52 256.655C494.93 256.655 494.245 256.676 493.466 256.719C492.707 256.761 491.949 256.813 491.19 256.877C490.453 256.94 489.81 257.003 489.262 257.066L489.136 254.095C489.684 253.969 490.337 253.842 491.095 253.716C491.875 253.569 492.686 253.453 493.529 253.368C494.372 253.284 495.151 253.242 495.868 253.242C497.216 253.242 498.344 253.411 499.25 253.748C500.156 254.085 500.84 254.643 501.304 255.423C501.767 256.181 501.999 257.214 501.999 258.52V265.758C502.041 266.053 502.199 266.284 502.473 266.453C502.747 266.6 503.063 266.706 503.421 266.769L503.327 269.677C502.821 269.698 502.326 269.708 501.841 269.708C501.357 269.708 500.946 269.677 500.609 269.613C500.124 269.55 499.703 269.424 499.344 269.234C499.007 269.045 498.733 268.844 498.523 268.634C498.186 268.781 497.733 268.95 497.164 269.139C496.595 269.329 495.973 269.487 495.299 269.613C494.646 269.74 493.982 269.803 493.308 269.803ZM494.319 266.674C494.719 266.674 495.141 266.632 495.583 266.548C496.026 266.463 496.437 266.369 496.816 266.263C497.216 266.137 497.532 266.021 497.764 265.916V262.281L494.54 262.565C493.845 262.629 493.339 262.839 493.023 263.198C492.728 263.535 492.581 264.019 492.581 264.651C492.581 265.284 492.718 265.779 492.992 266.137C493.287 266.495 493.729 266.674 494.319 266.674Z" fill="#3FBC33"/>
<path d="M510.639 269.803C509.269 269.803 508.205 269.519 507.446 268.95C506.709 268.36 506.182 267.475 505.866 266.295C505.571 265.115 505.424 263.63 505.424 261.839V253.59H509.627V261.649C509.627 262.766 509.68 263.651 509.785 264.304C509.912 264.957 510.154 265.42 510.512 265.694C510.87 265.968 511.387 266.105 512.061 266.105C512.714 266.105 513.325 266.021 513.894 265.852C514.463 265.684 514.916 265.515 515.253 265.347V253.59H519.456V269.455H515.284V268.476C514.568 268.876 513.852 269.203 513.135 269.455C512.44 269.687 511.608 269.803 510.639 269.803Z" fill="#3FBC33"/>
<path d="M529.277 269.803C527.465 269.803 526.043 269.529 525.011 268.981C523.999 268.412 523.283 267.506 522.862 266.263C522.461 265.02 522.261 263.387 522.261 261.364C522.261 259.363 522.493 257.772 522.956 256.592C523.42 255.391 524.168 254.538 525.2 254.032C526.254 253.505 527.623 253.242 529.309 253.242C529.751 253.242 530.268 253.274 530.858 253.337C531.448 253.4 532.038 253.484 532.628 253.59C533.239 253.674 533.755 253.758 534.176 253.842L534.018 257.224C533.618 257.182 533.165 257.15 532.659 257.129C532.153 257.087 531.658 257.056 531.174 257.035C530.71 256.992 530.331 256.971 530.036 256.971C529.13 256.971 528.414 257.119 527.887 257.414C527.381 257.688 527.023 258.151 526.812 258.804C526.623 259.437 526.528 260.29 526.528 261.364C526.528 262.523 526.623 263.45 526.812 264.146C527.002 264.841 527.339 265.336 527.824 265.631C528.329 265.926 529.067 266.074 530.036 266.074C530.331 266.074 530.721 266.063 531.205 266.042C531.69 266 532.185 265.958 532.691 265.916C533.217 265.873 533.681 265.842 534.081 265.821L534.208 269.203C533.786 269.287 533.281 269.371 532.691 269.455C532.101 269.561 531.5 269.645 530.889 269.708C530.299 269.771 529.762 269.803 529.277 269.803Z" fill="#3FBC33"/>
<path d="M536.805 269.455V247.111H541.009V254.159C541.535 253.969 542.21 253.769 543.031 253.558C543.853 253.347 544.612 253.242 545.307 253.242C546.782 253.242 547.93 253.505 548.752 254.032C549.574 254.538 550.142 255.37 550.458 256.529C550.796 257.688 550.964 259.226 550.964 261.143V269.455H546.729V261.459C546.729 260.364 546.666 259.489 546.539 258.836C546.413 258.162 546.171 257.677 545.813 257.382C545.475 257.087 544.949 256.94 544.232 256.94C543.663 256.94 543.073 257.014 542.462 257.161C541.872 257.309 541.388 257.445 541.009 257.572V269.455H536.805Z" fill="#3FBC33"/>
<path d="M334.254 301.455V285.59H338.458V286.601C338.795 286.39 339.206 286.19 339.69 286.001C340.175 285.79 340.681 285.611 341.207 285.463C341.755 285.316 342.282 285.242 342.788 285.242C344.263 285.242 345.4 285.505 346.201 286.032C347.023 286.538 347.602 287.381 347.939 288.561C348.276 289.719 348.445 291.279 348.445 293.238V301.455H344.21V293.459C344.21 292.364 344.147 291.489 344.02 290.836C343.894 290.162 343.652 289.677 343.293 289.382C342.935 289.087 342.408 288.94 341.713 288.94C341.334 288.94 340.934 288.982 340.512 289.066C340.112 289.129 339.722 289.224 339.343 289.351C338.985 289.477 338.69 289.603 338.458 289.73V301.455H334.254Z" fill="black"/>
<path d="M356.651 301.803C355.282 301.803 354.218 301.519 353.459 300.95C352.722 300.36 352.195 299.475 351.879 298.295C351.584 297.115 351.436 295.63 351.436 293.839V285.59H355.64V293.649C355.64 294.766 355.693 295.651 355.798 296.304C355.924 296.957 356.167 297.42 356.525 297.694C356.883 297.968 357.399 298.105 358.073 298.105C358.727 298.105 359.338 298.021 359.907 297.852C360.475 297.684 360.928 297.515 361.266 297.347V285.59H365.469V301.455H361.297V300.476C360.581 300.876 359.864 301.203 359.148 301.455C358.453 301.687 357.62 301.803 356.651 301.803Z" fill="black"/>
<path d="M368.811 301.455V285.59H373.015V287.454C373.373 287.18 373.815 286.896 374.342 286.601C374.869 286.285 375.438 286.001 376.049 285.748C376.681 285.474 377.281 285.295 377.85 285.21V289.287C377.302 289.372 376.723 289.519 376.112 289.73C375.501 289.92 374.921 290.13 374.374 290.362C373.847 290.594 373.394 290.804 373.015 290.994V301.455H368.811Z" fill="black"/>
<path d="M393.37 301.803C392.591 301.803 391.769 301.761 390.905 301.677C390.062 301.592 389.251 301.487 388.472 301.361C387.713 301.213 387.081 301.087 386.575 300.981L386.765 297.6C387.271 297.663 387.871 297.737 388.566 297.821C389.283 297.905 390.01 297.979 390.747 298.042C391.506 298.084 392.201 298.105 392.833 298.105C394.034 298.105 394.93 297.884 395.52 297.442C396.11 296.999 396.405 296.283 396.405 295.292C396.405 294.618 396.268 294.091 395.994 293.712C395.741 293.312 395.362 293.017 394.856 292.827C394.371 292.638 393.802 292.532 393.149 292.511H388.851V289.035H393.054C393.539 289.035 394.003 288.929 394.445 288.719C394.909 288.508 395.277 288.202 395.551 287.802C395.846 287.402 395.994 286.917 395.994 286.348C395.994 285.463 395.72 284.842 395.172 284.483C394.645 284.104 393.781 283.915 392.58 283.915C391.948 283.915 391.285 283.946 390.589 284.009C389.894 284.073 389.23 284.146 388.598 284.231C387.966 284.294 387.439 284.368 387.018 284.452L386.828 281.133C387.292 281.007 387.861 280.88 388.535 280.754C389.209 280.607 389.925 280.491 390.684 280.406C391.443 280.301 392.159 280.248 392.833 280.248C394.624 280.248 396.067 280.438 397.163 280.817C398.28 281.175 399.091 281.776 399.597 282.619C400.102 283.44 400.355 284.526 400.355 285.874C400.355 286.612 400.26 287.233 400.071 287.739C399.902 288.244 399.67 288.676 399.375 289.035C399.102 289.393 398.817 289.688 398.522 289.92C398.227 290.13 397.953 290.32 397.7 290.488C398.332 290.783 398.88 291.11 399.344 291.468C399.807 291.826 400.166 292.3 400.418 292.89C400.671 293.48 400.798 294.271 400.798 295.261C400.798 296.841 400.524 298.116 399.976 299.085C399.428 300.033 398.606 300.728 397.511 301.171C396.415 301.592 395.035 301.803 393.37 301.803Z" fill="black"/>
<path d="M411.151 301.803C409.802 301.803 408.633 301.624 407.643 301.266C406.652 300.887 405.831 300.286 405.177 299.464C404.545 298.621 404.061 297.526 403.724 296.177C403.408 294.829 403.25 293.175 403.25 291.215C403.25 289.193 403.408 287.475 403.724 286.064C404.061 284.652 404.556 283.525 405.209 282.682C405.862 281.818 406.673 281.197 407.643 280.817C408.633 280.438 409.792 280.248 411.119 280.248C412.489 280.248 413.669 280.438 414.659 280.817C415.649 281.197 416.46 281.818 417.093 282.682C417.746 283.525 418.22 284.652 418.515 286.064C418.831 287.454 418.989 289.172 418.989 291.215C418.989 293.807 418.704 295.882 418.136 297.442C417.588 298.98 416.734 300.096 415.576 300.792C414.417 301.466 412.942 301.803 411.151 301.803ZM411.151 298.137C411.741 298.137 412.246 298.042 412.668 297.852C413.11 297.642 413.479 297.284 413.774 296.778C414.069 296.272 414.28 295.566 414.406 294.66C414.554 293.754 414.627 292.606 414.627 291.215C414.627 289.74 414.554 288.529 414.406 287.581C414.28 286.633 414.08 285.895 413.806 285.368C413.532 284.821 413.174 284.441 412.731 284.231C412.289 283.999 411.762 283.883 411.151 283.883C410.54 283.883 410.013 283.999 409.571 284.231C409.128 284.441 408.759 284.81 408.464 285.337C408.19 285.864 407.98 286.612 407.832 287.581C407.685 288.529 407.611 289.751 407.611 291.247C407.611 292.638 407.685 293.786 407.832 294.692C408.001 295.598 408.233 296.304 408.528 296.809C408.823 297.294 409.181 297.642 409.602 297.852C410.045 298.042 410.561 298.137 411.151 298.137Z" fill="black"/>
<path d="M430.881 301.455L427.215 279.869H431.608L434.263 297.252H435.021L438.308 280.09H443.207L446.557 297.252H447.315L449.812 279.869H454.237L450.634 301.455H443.712L440.647 284.325H440.805L437.707 301.455H430.881Z" fill="black"/>
<path d="M460.696 301.803C459.052 301.803 457.809 301.392 456.966 300.57C456.144 299.728 455.734 298.463 455.734 296.778C455.734 295.598 455.944 294.681 456.366 294.028C456.787 293.354 457.409 292.869 458.23 292.574C459.073 292.258 460.095 292.069 461.296 292.005L465.152 291.658V290.71C465.152 289.951 464.962 289.424 464.583 289.129C464.204 288.813 463.645 288.655 462.908 288.655C462.318 288.655 461.633 288.676 460.854 288.719C460.095 288.761 459.337 288.813 458.578 288.877C457.841 288.94 457.198 289.003 456.65 289.066L456.524 286.095C457.071 285.969 457.725 285.842 458.483 285.716C459.263 285.569 460.074 285.453 460.917 285.368C461.76 285.284 462.539 285.242 463.256 285.242C464.604 285.242 465.731 285.411 466.637 285.748C467.543 286.085 468.228 286.643 468.692 287.423C469.155 288.181 469.387 289.214 469.387 290.52V297.758C469.429 298.053 469.587 298.284 469.861 298.453C470.135 298.6 470.451 298.706 470.809 298.769L470.714 301.677C470.209 301.698 469.714 301.708 469.229 301.708C468.744 301.708 468.333 301.677 467.996 301.613C467.512 301.55 467.09 301.424 466.732 301.234C466.395 301.045 466.121 300.844 465.91 300.634C465.573 300.781 465.12 300.95 464.551 301.139C463.982 301.329 463.361 301.487 462.687 301.613C462.033 301.74 461.37 301.803 460.696 301.803ZM461.707 298.674C462.107 298.674 462.529 298.632 462.971 298.548C463.414 298.463 463.824 298.369 464.204 298.263C464.604 298.137 464.92 298.021 465.152 297.916V294.281L461.928 294.565C461.233 294.629 460.727 294.839 460.411 295.198C460.116 295.535 459.969 296.019 459.969 296.651C459.969 297.284 460.106 297.779 460.379 298.137C460.674 298.495 461.117 298.674 461.707 298.674Z" fill="black"/>
<path d="M478.532 301.835C477.373 301.835 476.435 301.666 475.719 301.329C475.003 300.992 474.486 300.412 474.17 299.591C473.875 298.748 473.728 297.579 473.728 296.083V289.098H471.863V285.59H473.728V281.386H477.931V285.59H481.977V289.098H477.931V294.976C477.931 295.798 477.963 296.441 478.026 296.904C478.111 297.368 478.279 297.694 478.532 297.884C478.785 298.074 479.175 298.168 479.701 298.168C479.849 298.168 480.07 298.158 480.365 298.137C480.66 298.116 480.955 298.095 481.25 298.074C481.545 298.053 481.787 298.032 481.977 298.01L482.103 301.392C481.598 301.476 480.987 301.571 480.27 301.677C479.575 301.782 478.995 301.835 478.532 301.835Z" fill="black"/>
<path d="M489.761 301.835C488.602 301.835 487.664 301.666 486.948 301.329C486.232 300.992 485.715 300.412 485.399 299.591C485.104 298.748 484.957 297.579 484.957 296.083V289.098H483.092V285.59H484.957V281.386H489.16V285.59H493.206V289.098H489.16V294.976C489.16 295.798 489.192 296.441 489.255 296.904C489.339 297.368 489.508 297.694 489.761 297.884C490.014 298.074 490.404 298.168 490.93 298.168C491.078 298.168 491.299 298.158 491.594 298.137C491.889 298.116 492.184 298.095 492.479 298.074C492.774 298.053 493.016 298.032 493.206 298.01L493.332 301.392C492.827 301.476 492.216 301.571 491.499 301.677C490.804 301.782 490.224 301.835 489.761 301.835Z" fill="black"/>
<rect x="611.105" width="288.895" height="335.118" rx="27.3187" fill="white"/>
<path d="M731.04 120.717C732.048 121.726 733.148 122.198 734.337 122.133C735.527 122.069 736.626 121.455 737.635 120.291L756.274 98.6836L749.582 91.992L727.956 110.612C726.779 111.621 726.159 112.72 726.094 113.909C726.042 115.099 726.521 116.198 727.529 117.207L731.04 120.717ZM766.826 102.796C767.42 103.365 768.06 103.662 768.746 103.688C769.431 103.714 770.052 103.442 770.608 102.873L776.31 97.1901C776.84 96.647 777.092 96.0328 777.067 95.3475C777.041 94.6492 776.75 94.0092 776.194 93.4273L774.875 92.089C774.396 91.6234 773.963 91.3325 773.575 91.2161C773.2 91.0998 772.761 91.061 772.256 91.0998L770.394 91.3131L769.114 90.0524L769.657 87.7636C769.838 86.9619 769.78 86.1667 769.483 85.3779C769.198 84.5892 768.649 83.7939 767.834 82.9922L764.052 79.21C762.901 78.0592 761.582 77.1217 760.095 76.3976C758.608 75.6735 757.031 75.1756 755.362 74.9041C753.707 74.6196 752.052 74.5679 750.397 74.7489C748.742 74.9299 747.164 75.3567 745.664 76.029C744.164 76.6885 742.839 77.6001 741.688 78.7639C741.119 79.3328 740.822 79.9341 740.796 80.5677C740.77 81.2013 740.925 81.7509 741.262 82.2164C741.559 82.6043 741.966 82.8888 742.484 83.0698C743.001 83.2508 743.583 83.2573 744.229 83.0892C745.923 82.5978 747.533 82.3328 749.059 82.294C750.598 82.2422 751.981 82.5655 753.21 83.2638L752.046 86.2895C751.671 87.2335 751.561 88.0804 751.716 88.8304C751.871 89.5675 752.272 90.2722 752.919 90.9446L756.856 94.882C757.49 95.5156 758.13 95.9423 758.776 96.1621C759.423 96.369 760.147 96.3949 760.949 96.2397L763.451 95.716L764.731 96.9961L764.498 98.8776C764.446 99.3689 764.479 99.815 764.595 100.216C764.724 100.604 765.035 101.031 765.526 101.496L766.826 102.796Z" fill="black"/>
<path d="M649.161 119.845C650.247 120.944 651.418 121.674 652.672 122.036C653.926 122.411 655.174 122.424 656.415 122.075C657.67 121.726 658.833 121.015 659.907 119.941C660.45 119.411 660.98 118.752 661.497 117.963C662.027 117.174 662.538 116.334 663.029 115.442C663.534 114.562 664.019 113.69 664.484 112.823C664.95 111.957 665.383 111.181 665.784 110.496L669.993 114.705C670.846 115.558 671.751 115.991 672.708 116.004C673.678 116.017 674.57 115.61 675.385 114.782L676.994 113.172C677.822 112.319 678.229 111.42 678.216 110.476C678.204 109.532 677.77 108.64 676.917 107.8L661.226 92.0888C660.359 91.2483 659.448 90.8216 658.491 90.8087C657.547 90.7828 656.661 91.1901 655.833 92.0306L654.243 93.6211C653.402 94.4487 652.989 95.3473 653.002 96.3171C653.015 97.274 653.441 98.1727 654.282 99.0132L658.491 103.222C657.818 103.623 657.049 104.056 656.183 104.522C655.329 104.987 654.456 105.472 653.564 105.976C652.672 106.468 651.831 106.978 651.043 107.509C650.267 108.026 649.607 108.55 649.064 109.08C647.991 110.166 647.28 111.336 646.931 112.59C646.582 113.845 646.588 115.099 646.95 116.353C647.325 117.608 648.062 118.771 649.161 119.845ZM654.67 116.722C654.049 116.722 653.519 116.502 653.079 116.062C652.652 115.623 652.439 115.099 652.439 114.491C652.439 113.883 652.652 113.36 653.079 112.92C653.519 112.493 654.049 112.28 654.67 112.28C655.277 112.28 655.795 112.493 656.221 112.92C656.661 113.36 656.881 113.883 656.881 114.491C656.881 115.099 656.661 115.623 656.221 116.062C655.795 116.502 655.277 116.722 654.67 116.722ZM679.691 107.063L687.177 99.5951C688.367 98.4054 688.949 97.1318 688.923 95.774C688.897 94.4034 688.277 93.0909 687.061 91.8367L685.8 90.5371C685.296 91.1837 684.611 91.8302 683.744 92.4767C682.891 93.1233 681.992 93.6987 681.048 94.203C680.117 94.6943 679.277 95.0435 678.527 95.2504C677.79 95.4443 677.285 95.4055 677.014 95.134C676.923 95.0435 676.878 94.9271 676.878 94.7849C676.878 94.6297 676.936 94.4874 677.053 94.3581C677.816 93.5952 678.494 92.8129 679.089 92.0112C679.697 91.1966 680.195 90.3108 680.583 89.354C680.971 88.3971 681.223 87.3174 681.339 86.1148L671.389 76.1453C670.652 75.4082 669.812 75.0268 668.868 75.0009C667.937 74.9621 667.064 75.2595 666.249 75.8931C665.447 76.5267 664.872 77.4707 664.523 78.725C664.057 80.3801 663.631 81.8283 663.243 83.0697C662.855 84.311 662.499 85.3907 662.176 86.3088C661.853 87.2139 661.562 88.0027 661.303 88.6751L679.691 107.063Z" fill="black"/>
<path d="M648.435 237.771C646.623 237.771 645.127 237.54 643.947 237.076C642.767 236.591 641.84 235.886 641.166 234.958C640.513 234.01 640.049 232.851 639.775 231.482C639.501 230.091 639.364 228.49 639.364 226.678C639.364 224.761 639.512 223.107 639.807 221.716C640.123 220.304 640.629 219.145 641.324 218.239C642.04 217.312 642.967 216.628 644.105 216.185C645.264 215.722 646.686 215.49 648.372 215.49C649.236 215.49 650.131 215.542 651.058 215.648C652.006 215.732 652.902 215.848 653.745 215.995C654.609 216.143 655.325 216.29 655.894 216.438L655.831 219.851C655.241 219.746 654.524 219.651 653.682 219.567C652.86 219.483 652.017 219.419 651.153 219.377C650.289 219.314 649.51 219.282 648.814 219.282C647.761 219.282 646.897 219.419 646.223 219.693C645.57 219.967 645.064 220.41 644.706 221.021C644.369 221.611 644.137 222.38 644.01 223.328C643.884 224.255 643.821 225.372 643.821 226.678C643.821 228.342 643.937 229.733 644.168 230.85C644.421 231.945 644.895 232.757 645.591 233.283C646.307 233.81 647.329 234.074 648.656 234.074C648.993 234.074 649.352 234.063 649.731 234.042C650.131 234.021 650.51 233.989 650.869 233.947C651.248 233.905 651.564 233.863 651.817 233.821V229.112H649.257V225.793H655.957V236.95C655.494 237.013 654.935 237.097 654.282 237.202C653.629 237.287 652.944 237.371 652.228 237.455C651.532 237.54 650.848 237.613 650.173 237.677C649.52 237.74 648.941 237.771 648.435 237.771Z" fill="black"/>
<path d="M665.6 237.803C663.851 237.803 662.46 237.508 661.428 236.918C660.417 236.328 659.69 235.433 659.247 234.232C658.805 233.031 658.584 231.524 658.584 229.712C658.584 227.753 658.857 226.151 659.405 224.908C659.974 223.665 660.796 222.748 661.87 222.158C662.945 221.547 664.272 221.242 665.853 221.242C668.191 221.242 669.951 221.832 671.131 223.012C672.332 224.192 672.932 226.056 672.932 228.606L672.743 230.945H662.819C662.84 232.125 663.082 233.01 663.546 233.599C664.009 234.189 664.81 234.484 665.948 234.484C666.601 234.484 667.317 234.474 668.097 234.453C668.876 234.411 669.645 234.369 670.404 234.326C671.183 234.284 671.847 234.242 672.395 234.2L672.49 237.139C671.963 237.224 671.299 237.318 670.499 237.424C669.698 237.529 668.866 237.613 668.002 237.677C667.159 237.761 666.358 237.803 665.6 237.803ZM662.819 228.258H668.729C668.729 226.825 668.497 225.825 668.033 225.256C667.591 224.687 666.864 224.402 665.853 224.402C664.862 224.402 664.104 224.697 663.577 225.287C663.071 225.877 662.819 226.868 662.819 228.258Z" fill="black"/>
<path d="M682.583 244.693C680.897 244.693 679.486 244.566 678.348 244.314C677.231 244.061 676.388 243.597 675.819 242.923C675.251 242.27 674.966 241.322 674.966 240.079C674.966 239.531 675.04 239.036 675.187 238.593C675.356 238.172 675.609 237.771 675.946 237.392C676.304 237.013 676.747 236.623 677.273 236.223C676.978 236.012 676.736 235.706 676.546 235.306C676.378 234.885 676.294 234.432 676.294 233.947C676.294 233.694 676.441 233.326 676.736 232.841C677.052 232.335 677.358 231.893 677.653 231.514C677.231 231.324 676.831 231.05 676.452 230.692C676.072 230.313 675.756 229.807 675.503 229.175C675.272 228.543 675.156 227.731 675.156 226.741C675.156 224.74 675.725 223.328 676.862 222.506C678.021 221.663 679.665 221.242 681.793 221.242C682.341 221.242 682.931 221.284 683.563 221.368C684.195 221.453 684.7 221.537 685.08 221.621L690.231 221.526V224.371L687.829 224.339C688.019 224.592 688.188 224.919 688.335 225.319C688.504 225.698 688.588 226.172 688.588 226.741C688.588 228.195 688.335 229.322 687.829 230.123C687.345 230.924 686.607 231.482 685.617 231.798C684.627 232.093 683.373 232.24 681.856 232.24C681.687 232.24 681.456 232.23 681.161 232.209C680.866 232.167 680.623 232.135 680.434 232.114C680.35 232.325 680.265 232.567 680.181 232.841C680.097 233.094 680.055 233.273 680.055 233.378C680.055 233.652 680.139 233.863 680.307 234.01C680.497 234.158 680.866 234.263 681.414 234.326C681.982 234.369 682.836 234.39 683.974 234.39C685.47 234.39 686.66 234.527 687.545 234.8C688.451 235.074 689.094 235.559 689.473 236.254C689.852 236.95 690.042 237.929 690.042 239.194C690.042 241.069 689.378 242.449 688.051 243.334C686.744 244.24 684.922 244.693 682.583 244.693ZM682.362 241.564C683.668 241.564 684.606 241.406 685.175 241.09C685.765 240.795 686.059 240.3 686.059 239.604C686.059 239.057 685.954 238.656 685.743 238.403C685.554 238.151 685.227 237.982 684.764 237.898C684.3 237.835 683.668 237.803 682.867 237.803C682.657 237.803 682.404 237.792 682.109 237.771C681.814 237.771 681.508 237.761 681.192 237.74C680.897 237.74 680.623 237.729 680.371 237.708C680.139 237.687 679.97 237.677 679.865 237.677C679.401 237.993 679.085 238.277 678.917 238.53C678.748 238.804 678.664 239.162 678.664 239.604C678.664 240.089 678.78 240.468 679.012 240.742C679.243 241.037 679.623 241.248 680.149 241.374C680.697 241.501 681.435 241.564 682.362 241.564ZM681.824 229.27C682.794 229.27 683.478 229.08 683.879 228.701C684.3 228.3 684.511 227.647 684.511 226.741C684.511 225.835 684.3 225.182 683.879 224.782C683.478 224.381 682.794 224.181 681.824 224.181C680.897 224.181 680.223 224.381 679.802 224.782C679.401 225.182 679.201 225.835 679.201 226.741C679.201 227.647 679.401 228.3 679.802 228.701C680.223 229.08 680.897 229.27 681.824 229.27Z" fill="black"/>
<path d="M698.737 237.803C696.988 237.803 695.597 237.508 694.565 236.918C693.554 236.328 692.827 235.433 692.384 234.232C691.942 233.031 691.721 231.524 691.721 229.712C691.721 227.753 691.994 226.151 692.542 224.908C693.111 223.665 693.933 222.748 695.007 222.158C696.082 221.547 697.409 221.242 698.99 221.242C701.328 221.242 703.088 221.832 704.268 223.012C705.469 224.192 706.069 226.056 706.069 228.606L705.88 230.945H695.956C695.977 232.125 696.219 233.01 696.683 233.599C697.146 234.189 697.947 234.484 699.085 234.484C699.738 234.484 700.454 234.474 701.234 234.453C702.013 234.411 702.782 234.369 703.541 234.326C704.32 234.284 704.984 234.242 705.532 234.2L705.627 237.139C705.1 237.224 704.436 237.318 703.636 237.424C702.835 237.529 702.003 237.613 701.139 237.677C700.296 237.761 699.495 237.803 698.737 237.803ZM695.956 228.258H701.866C701.866 226.825 701.634 225.825 701.17 225.256C700.728 224.687 700.001 224.402 698.99 224.402C697.999 224.402 697.241 224.697 696.714 225.287C696.208 225.877 695.956 226.868 695.956 228.258Z" fill="black"/>
<path d="M708.735 237.455V221.59H712.939V222.601C713.276 222.39 713.687 222.19 714.171 222C714.656 221.79 715.162 221.611 715.688 221.463C716.236 221.316 716.763 221.242 717.269 221.242C718.743 221.242 719.881 221.505 720.682 222.032C721.504 222.538 722.083 223.38 722.42 224.56C722.757 225.719 722.926 227.278 722.926 229.238V237.455H718.691V229.459C718.691 228.364 718.628 227.489 718.501 226.836C718.375 226.162 718.132 225.677 717.774 225.382C717.416 225.087 716.889 224.94 716.194 224.94C715.815 224.94 715.414 224.982 714.993 225.066C714.593 225.129 714.203 225.224 713.824 225.351C713.465 225.477 713.17 225.603 712.939 225.73V237.455H708.735Z" fill="black"/>
<path d="M643.6 269.455L638.448 247.869H643.031L646.728 265.252H648.024L651.659 247.869H656.242L651.185 269.455H643.6Z" fill="#EB5757"/>
<path d="M662.429 269.803C660.786 269.803 659.543 269.392 658.7 268.57C657.878 267.728 657.467 266.463 657.467 264.778C657.467 263.598 657.678 262.681 658.099 262.028C658.521 261.354 659.142 260.869 659.964 260.574C660.807 260.258 661.829 260.069 663.03 260.005L666.886 259.658V258.71C666.886 257.951 666.696 257.424 666.317 257.129C665.937 256.813 665.379 256.655 664.642 256.655C664.052 256.655 663.367 256.676 662.587 256.718C661.829 256.761 661.07 256.813 660.312 256.876C659.574 256.94 658.932 257.003 658.384 257.066L658.257 254.095C658.805 253.969 659.458 253.842 660.217 253.716C660.996 253.568 661.808 253.453 662.65 253.368C663.493 253.284 664.273 253.242 664.989 253.242C666.338 253.242 667.465 253.41 668.371 253.748C669.277 254.085 669.962 254.643 670.425 255.423C670.889 256.181 671.121 257.214 671.121 258.52V265.757C671.163 266.052 671.321 266.284 671.595 266.453C671.869 266.6 672.185 266.706 672.543 266.769L672.448 269.677C671.942 269.698 671.447 269.708 670.963 269.708C670.478 269.708 670.067 269.677 669.73 269.613C669.245 269.55 668.824 269.424 668.466 269.234C668.129 269.044 667.855 268.844 667.644 268.634C667.307 268.781 666.854 268.95 666.285 269.139C665.716 269.329 665.095 269.487 664.42 269.613C663.767 269.74 663.103 269.803 662.429 269.803ZM663.441 266.674C663.841 266.674 664.262 266.632 664.705 266.548C665.147 266.463 665.558 266.369 665.937 266.263C666.338 266.137 666.654 266.021 666.886 265.916V262.281L663.662 262.565C662.967 262.629 662.461 262.839 662.145 263.197C661.85 263.535 661.702 264.019 661.702 264.651C661.702 265.283 661.839 265.779 662.113 266.137C662.408 266.495 662.851 266.674 663.441 266.674Z" fill="#EB5757"/>
<path d="M674.703 269.455V253.59H678.907V254.601C679.244 254.39 679.655 254.19 680.139 254C680.624 253.79 681.13 253.611 681.656 253.463C682.204 253.316 682.731 253.242 683.237 253.242C684.711 253.242 685.849 253.505 686.65 254.032C687.472 254.538 688.051 255.38 688.388 256.56C688.725 257.719 688.894 259.278 688.894 261.238V269.455H684.659V261.459C684.659 260.364 684.596 259.489 684.469 258.836C684.343 258.162 684.1 257.677 683.742 257.382C683.384 257.087 682.857 256.94 682.162 256.94C681.783 256.94 681.382 256.982 680.961 257.066C680.561 257.129 680.171 257.224 679.792 257.351C679.433 257.477 679.138 257.603 678.907 257.73V269.455H674.703Z" fill="#EB5757"/>
<path d="M697.384 269.803C696.626 269.803 695.931 269.708 695.299 269.519C694.666 269.35 694.108 269.076 693.623 268.697C693.16 268.296 692.76 267.78 692.423 267.148C692.106 266.516 691.864 265.747 691.696 264.841C691.527 263.914 691.443 262.839 691.443 261.617C691.443 259.805 691.664 258.278 692.106 257.034C692.57 255.791 693.297 254.854 694.287 254.222C695.277 253.568 696.594 253.242 698.238 253.242C698.722 253.242 699.291 253.284 699.945 253.368C700.619 253.432 701.156 253.495 701.556 253.558V247.11H705.791V269.455H701.62L701.588 268.539C701.293 268.707 700.903 268.897 700.419 269.108C699.955 269.297 699.46 269.455 698.933 269.582C698.406 269.729 697.89 269.803 697.384 269.803ZM698.459 266.263C698.838 266.263 699.218 266.221 699.597 266.137C699.997 266.052 700.366 265.958 700.703 265.852C701.061 265.726 701.346 265.61 701.556 265.505V257.003C701.367 256.961 701.114 256.929 700.798 256.908C700.482 256.866 700.155 256.834 699.818 256.813C699.481 256.771 699.175 256.75 698.902 256.75C698.08 256.75 697.437 256.94 696.974 257.319C696.531 257.698 696.215 258.257 696.025 258.994C695.836 259.71 695.741 260.585 695.741 261.617C695.741 262.523 695.804 263.282 695.931 263.893C696.057 264.483 696.236 264.957 696.468 265.315C696.721 265.652 697.016 265.894 697.353 266.042C697.69 266.189 698.059 266.263 698.459 266.263Z" fill="#EB5757"/>
<path d="M713.277 269.803C711.633 269.803 710.39 269.392 709.547 268.57C708.726 267.728 708.315 266.463 708.315 264.778C708.315 263.598 708.525 262.681 708.947 262.028C709.368 261.354 709.99 260.869 710.811 260.574C711.654 260.258 712.676 260.069 713.877 260.005L717.733 259.658V258.71C717.733 257.951 717.543 257.424 717.164 257.129C716.785 256.813 716.226 256.655 715.489 256.655C714.899 256.655 714.214 256.676 713.435 256.718C712.676 256.761 711.918 256.813 711.159 256.876C710.422 256.94 709.779 257.003 709.231 257.066L709.105 254.095C709.653 253.969 710.306 253.842 711.064 253.716C711.844 253.568 712.655 253.453 713.498 253.368C714.341 253.284 715.12 253.242 715.837 253.242C717.185 253.242 718.312 253.41 719.218 253.748C720.124 254.085 720.809 254.643 721.273 255.423C721.736 256.181 721.968 257.214 721.968 258.52V265.757C722.01 266.052 722.168 266.284 722.442 266.453C722.716 266.6 723.032 266.706 723.39 266.769L723.296 269.677C722.79 269.698 722.295 269.708 721.81 269.708C721.325 269.708 720.915 269.677 720.577 269.613C720.093 269.55 719.671 269.424 719.313 269.234C718.976 269.044 718.702 268.844 718.492 268.634C718.154 268.781 717.701 268.95 717.133 269.139C716.564 269.329 715.942 269.487 715.268 269.613C714.615 269.74 713.951 269.803 713.277 269.803ZM714.288 266.674C714.688 266.674 715.11 266.632 715.552 266.548C715.995 266.463 716.406 266.369 716.785 266.263C717.185 266.137 717.501 266.021 717.733 265.916V262.281L714.509 262.565C713.814 262.629 713.308 262.839 712.992 263.197C712.697 263.535 712.55 264.019 712.55 264.651C712.55 265.283 712.687 265.779 712.961 266.137C713.256 266.495 713.698 266.674 714.288 266.674Z" fill="#EB5757"/>
<path d="M725.677 269.455V247.11H729.88V269.455H725.677Z" fill="#EB5757"/>
<path d="M733.354 269.455V253.59H737.557V269.455H733.354ZM733.354 251.061V247.458H737.589V251.061H733.354Z" fill="#EB5757"/>
<path d="M746.661 269.803C745.966 269.803 745.218 269.761 744.417 269.677C743.638 269.613 742.9 269.529 742.205 269.424C741.531 269.318 740.951 269.213 740.466 269.108L740.593 265.979C741.141 266.042 741.752 266.116 742.426 266.2C743.121 266.284 743.796 266.358 744.449 266.421C745.123 266.463 745.671 266.484 746.092 266.484C746.724 266.484 747.241 266.432 747.641 266.326C748.062 266.221 748.378 266.052 748.589 265.821C748.8 265.568 748.905 265.21 748.905 264.746C748.905 264.388 748.81 264.114 748.621 263.924C748.452 263.735 748.115 263.577 747.609 263.45C747.125 263.303 746.408 263.155 745.46 263.008C744.28 262.839 743.3 262.597 742.521 262.281C741.762 261.965 741.204 261.501 740.846 260.89C740.488 260.258 740.308 259.405 740.308 258.33C740.308 257.024 740.593 256.002 741.162 255.265C741.731 254.527 742.489 254.011 743.437 253.716C744.386 253.4 745.418 253.242 746.535 253.242C747.272 253.242 748.031 253.284 748.81 253.368C749.59 253.432 750.327 253.516 751.023 253.621C751.718 253.726 752.297 253.832 752.761 253.937L752.634 257.129C752.108 257.045 751.497 256.971 750.801 256.908C750.106 256.824 749.411 256.761 748.715 256.718C748.041 256.676 747.472 256.655 747.009 256.655C746.524 256.655 746.092 256.708 745.713 256.813C745.334 256.898 745.039 257.045 744.828 257.256C744.638 257.466 744.544 257.782 744.544 258.204C744.544 258.499 744.628 258.741 744.796 258.931C744.965 259.12 745.281 259.289 745.745 259.436C746.229 259.563 746.924 259.689 747.83 259.816C749.137 260.005 750.18 260.269 750.959 260.606C751.739 260.943 752.297 261.428 752.634 262.06C752.993 262.692 753.172 263.545 753.172 264.62C753.172 266.537 752.603 267.886 751.465 268.665C750.348 269.424 748.747 269.803 746.661 269.803Z" fill="#EB5757"/>
<path d="M755.812 269.455V253.59H760.015V254.601C760.5 254.306 761.153 254.011 761.975 253.716C762.796 253.4 763.576 253.242 764.313 253.242C765.283 253.242 766.073 253.379 766.684 253.653C767.295 253.906 767.8 254.285 768.201 254.791C768.58 254.559 769.054 254.327 769.623 254.095C770.192 253.863 770.813 253.663 771.488 253.495C772.162 253.326 772.815 253.242 773.447 253.242C775.006 253.242 776.197 253.516 777.019 254.064C777.84 254.611 778.409 255.475 778.725 256.655C779.041 257.814 779.199 259.331 779.199 261.206V269.455H774.996V261.586C774.996 260.49 774.933 259.605 774.806 258.931C774.701 258.235 774.469 257.73 774.111 257.414C773.774 257.098 773.258 256.94 772.562 256.94C771.951 256.94 771.351 257.024 770.761 257.193C770.171 257.361 769.707 257.53 769.37 257.698C769.475 258.141 769.549 258.71 769.591 259.405C769.655 260.1 769.686 260.827 769.686 261.586V269.455H765.483V261.649C765.483 260.532 765.419 259.626 765.293 258.931C765.188 258.235 764.956 257.73 764.598 257.414C764.24 257.098 763.723 256.94 763.049 256.94C762.459 256.94 761.88 257.024 761.311 257.193C760.763 257.361 760.331 257.53 760.015 257.698V269.455H755.812Z" fill="#EB5757"/>
<path d="M787.468 269.803C786.098 269.803 785.034 269.518 784.276 268.95C783.538 268.36 783.011 267.475 782.695 266.295C782.4 265.115 782.253 263.629 782.253 261.838V253.59H786.456V261.649C786.456 262.766 786.509 263.65 786.614 264.304C786.741 264.957 786.983 265.42 787.341 265.694C787.7 265.968 788.216 266.105 788.89 266.105C789.543 266.105 790.154 266.021 790.723 265.852C791.292 265.684 791.745 265.515 792.082 265.347V253.59H796.286V269.455H792.114V268.476C791.397 268.876 790.681 269.202 789.965 269.455C789.269 269.687 788.437 269.803 787.468 269.803Z" fill="#EB5757"/>
<path d="M805.348 269.803C804.653 269.803 803.905 269.761 803.104 269.677C802.325 269.613 801.587 269.529 800.892 269.424C800.218 269.318 799.638 269.213 799.153 269.108L799.28 265.979C799.828 266.042 800.439 266.116 801.113 266.2C801.808 266.284 802.483 266.358 803.136 266.421C803.81 266.463 804.358 266.484 804.779 266.484C805.411 266.484 805.928 266.432 806.328 266.326C806.749 266.221 807.065 266.052 807.276 265.821C807.487 265.568 807.592 265.21 807.592 264.746C807.592 264.388 807.497 264.114 807.308 263.924C807.139 263.735 806.802 263.577 806.296 263.45C805.812 263.303 805.095 263.155 804.147 263.008C802.967 262.839 801.987 262.597 801.208 262.281C800.449 261.965 799.891 261.501 799.533 260.89C799.175 260.258 798.995 259.405 798.995 258.33C798.995 257.024 799.28 256.002 799.849 255.265C800.418 254.527 801.176 254.011 802.124 253.716C803.073 253.4 804.105 253.242 805.222 253.242C805.959 253.242 806.718 253.284 807.497 253.368C808.277 253.432 809.014 253.516 809.71 253.621C810.405 253.726 810.984 253.832 811.448 253.937L811.321 257.129C810.795 257.045 810.184 256.971 809.488 256.908C808.793 256.824 808.098 256.761 807.402 256.718C806.728 256.676 806.159 256.655 805.696 256.655C805.211 256.655 804.779 256.708 804.4 256.813C804.021 256.898 803.726 257.045 803.515 257.256C803.325 257.466 803.231 257.782 803.231 258.204C803.231 258.499 803.315 258.741 803.483 258.931C803.652 259.12 803.968 259.289 804.432 259.436C804.916 259.563 805.611 259.689 806.517 259.816C807.824 260.005 808.867 260.269 809.646 260.606C810.426 260.943 810.984 261.428 811.321 262.06C811.68 262.692 811.859 263.545 811.859 264.62C811.859 266.537 811.29 267.886 810.152 268.665C809.035 269.424 807.434 269.803 805.348 269.803Z" fill="#EB5757"/>
<path d="M646.792 308.693C645.106 308.693 643.694 308.566 642.557 308.314C641.44 308.061 640.597 307.597 640.028 306.923C639.459 306.27 639.175 305.322 639.175 304.079C639.175 303.531 639.249 303.036 639.396 302.593C639.565 302.172 639.817 301.771 640.155 301.392C640.513 301.013 640.955 300.623 641.482 300.223C641.187 300.012 640.945 299.706 640.755 299.306C640.586 298.885 640.502 298.432 640.502 297.947C640.502 297.694 640.65 297.326 640.945 296.841C641.261 296.335 641.566 295.893 641.861 295.514C641.44 295.324 641.039 295.05 640.66 294.692C640.281 294.313 639.965 293.807 639.712 293.175C639.48 292.543 639.364 291.731 639.364 290.741C639.364 288.74 639.933 287.328 641.071 286.506C642.23 285.663 643.873 285.242 646.001 285.242C646.549 285.242 647.139 285.284 647.771 285.368C648.403 285.453 648.909 285.537 649.288 285.621L654.44 285.526V288.371L652.038 288.339C652.228 288.592 652.396 288.919 652.544 289.319C652.712 289.698 652.797 290.172 652.797 290.741C652.797 292.195 652.544 293.322 652.038 294.123C651.553 294.924 650.816 295.482 649.826 295.798C648.835 296.093 647.582 296.24 646.065 296.24C645.896 296.24 645.664 296.23 645.369 296.209C645.074 296.167 644.832 296.135 644.642 296.114C644.558 296.325 644.474 296.567 644.39 296.841C644.305 297.094 644.263 297.273 644.263 297.378C644.263 297.652 644.347 297.863 644.516 298.01C644.706 298.158 645.074 298.263 645.622 298.326C646.191 298.369 647.044 298.39 648.182 298.39C649.678 298.39 650.869 298.527 651.754 298.8C652.66 299.074 653.302 299.559 653.682 300.254C654.061 300.95 654.25 301.929 654.25 303.194C654.25 305.069 653.587 306.449 652.259 307.334C650.953 308.24 649.13 308.693 646.792 308.693ZM646.57 305.564C647.877 305.564 648.814 305.406 649.383 305.09C649.973 304.795 650.268 304.3 650.268 303.604C650.268 303.057 650.163 302.656 649.952 302.403C649.763 302.151 649.436 301.982 648.972 301.898C648.509 301.835 647.877 301.803 647.076 301.803C646.865 301.803 646.613 301.792 646.318 301.771C646.023 301.771 645.717 301.761 645.401 301.74C645.106 301.74 644.832 301.729 644.579 301.708C644.347 301.687 644.179 301.677 644.074 301.677C643.61 301.993 643.294 302.277 643.125 302.53C642.957 302.804 642.873 303.162 642.873 303.604C642.873 304.089 642.988 304.468 643.22 304.742C643.452 305.037 643.831 305.248 644.358 305.374C644.906 305.501 645.643 305.564 646.57 305.564ZM646.033 293.27C647.002 293.27 647.687 293.08 648.087 292.701C648.509 292.3 648.72 291.647 648.72 290.741C648.72 289.835 648.509 289.182 648.087 288.782C647.687 288.381 647.002 288.181 646.033 288.181C645.106 288.181 644.432 288.381 644.01 288.782C643.61 289.182 643.41 289.835 643.41 290.741C643.41 291.647 643.61 292.3 644.01 292.701C644.432 293.08 645.106 293.27 646.033 293.27Z" fill="black"/>
<path d="M662.946 301.803C661.197 301.803 659.806 301.508 658.774 300.918C657.762 300.328 657.035 299.433 656.593 298.232C656.15 297.031 655.929 295.524 655.929 293.712C655.929 291.753 656.203 290.151 656.751 288.908C657.32 287.665 658.142 286.748 659.216 286.158C660.291 285.547 661.618 285.242 663.198 285.242C665.537 285.242 667.297 285.832 668.476 287.012C669.677 288.192 670.278 290.056 670.278 292.606L670.088 294.945H660.164C660.185 296.125 660.428 297.01 660.891 297.599C661.355 298.189 662.155 298.484 663.293 298.484C663.946 298.484 664.663 298.474 665.442 298.453C666.222 298.411 666.991 298.369 667.75 298.326C668.529 298.284 669.193 298.242 669.741 298.2L669.835 301.139C669.309 301.224 668.645 301.318 667.844 301.424C667.044 301.529 666.211 301.613 665.348 301.677C664.505 301.761 663.704 301.803 662.946 301.803ZM660.164 292.258H666.074C666.074 290.825 665.843 289.825 665.379 289.256C664.937 288.687 664.21 288.402 663.198 288.402C662.208 288.402 661.45 288.697 660.923 289.287C660.417 289.877 660.164 290.868 660.164 292.258Z" fill="black"/>
<path d="M678.664 301.803C677.969 301.803 677.221 301.761 676.42 301.677C675.641 301.613 674.903 301.529 674.208 301.424C673.534 301.318 672.954 301.213 672.47 301.108L672.596 297.979C673.144 298.042 673.755 298.116 674.429 298.2C675.125 298.284 675.799 298.358 676.452 298.421C677.126 298.463 677.674 298.484 678.096 298.484C678.728 298.484 679.244 298.432 679.644 298.326C680.066 298.221 680.382 298.052 680.592 297.821C680.803 297.568 680.908 297.21 680.908 296.746C680.908 296.388 680.814 296.114 680.624 295.924C680.455 295.735 680.118 295.577 679.613 295.45C679.128 295.303 678.412 295.155 677.463 295.008C676.283 294.839 675.304 294.597 674.524 294.281C673.766 293.965 673.207 293.501 672.849 292.89C672.491 292.258 672.312 291.405 672.312 290.33C672.312 289.024 672.596 288.002 673.165 287.265C673.734 286.527 674.493 286.011 675.441 285.716C676.389 285.4 677.421 285.242 678.538 285.242C679.275 285.242 680.034 285.284 680.814 285.368C681.593 285.432 682.331 285.516 683.026 285.621C683.721 285.726 684.301 285.832 684.764 285.937L684.638 289.129C684.111 289.045 683.5 288.971 682.805 288.908C682.109 288.824 681.414 288.761 680.719 288.718C680.044 288.676 679.476 288.655 679.012 288.655C678.527 288.655 678.096 288.708 677.716 288.813C677.337 288.898 677.042 289.045 676.831 289.256C676.642 289.466 676.547 289.782 676.547 290.204C676.547 290.499 676.631 290.741 676.8 290.931C676.968 291.12 677.284 291.289 677.748 291.436C678.232 291.563 678.928 291.689 679.834 291.816C681.14 292.005 682.183 292.269 682.963 292.606C683.742 292.943 684.301 293.428 684.638 294.06C684.996 294.692 685.175 295.545 685.175 296.62C685.175 298.537 684.606 299.886 683.468 300.665C682.352 301.424 680.75 301.803 678.664 301.803Z" fill="black"/>
<path d="M694.294 301.803C692.482 301.803 691.06 301.529 690.027 300.981C689.016 300.412 688.299 299.506 687.878 298.263C687.478 297.02 687.278 295.387 687.278 293.364C687.278 291.363 687.509 289.772 687.973 288.592C688.436 287.391 689.184 286.538 690.217 286.032C691.27 285.505 692.64 285.242 694.325 285.242C694.768 285.242 695.284 285.273 695.874 285.337C696.464 285.4 697.054 285.484 697.644 285.59C698.255 285.674 698.771 285.758 699.193 285.842L699.035 289.224C698.634 289.182 698.181 289.15 697.676 289.129C697.17 289.087 696.675 289.056 696.19 289.034C695.727 288.992 695.347 288.971 695.052 288.971C694.146 288.971 693.43 289.119 692.903 289.414C692.398 289.688 692.039 290.151 691.829 290.804C691.639 291.436 691.544 292.29 691.544 293.364C691.544 294.523 691.639 295.45 691.829 296.146C692.018 296.841 692.355 297.336 692.84 297.631C693.346 297.926 694.083 298.074 695.052 298.074C695.347 298.074 695.737 298.063 696.222 298.042C696.706 298 697.202 297.958 697.707 297.916C698.234 297.873 698.698 297.842 699.098 297.821L699.224 301.202C698.803 301.287 698.297 301.371 697.707 301.455C697.117 301.561 696.517 301.645 695.906 301.708C695.316 301.771 694.778 301.803 694.294 301.803Z" fill="black"/>
<path d="M701.822 301.455V279.11H706.025V286.158C706.552 285.969 707.226 285.769 708.048 285.558C708.87 285.347 709.628 285.242 710.323 285.242C711.798 285.242 712.947 285.505 713.768 286.032C714.59 286.538 715.159 287.37 715.475 288.529C715.812 289.688 715.981 291.226 715.981 293.143V301.455H711.746V293.459C711.746 292.364 711.682 291.489 711.556 290.836C711.43 290.162 711.187 289.677 710.829 289.382C710.492 289.087 709.965 288.94 709.249 288.94C708.68 288.94 708.09 289.013 707.479 289.161C706.889 289.308 706.404 289.445 706.025 289.572V301.455H701.822Z" fill="black"/>
<path d="M724.218 301.803C722.849 301.803 721.785 301.518 721.026 300.95C720.289 300.36 719.762 299.475 719.446 298.295C719.151 297.115 719.004 295.629 719.004 293.838V285.59H723.207V293.649C723.207 294.766 723.26 295.65 723.365 296.304C723.492 296.957 723.734 297.42 724.092 297.694C724.45 297.968 724.966 298.105 725.641 298.105C726.294 298.105 726.905 298.021 727.474 297.852C728.043 297.684 728.496 297.515 728.833 297.347V285.59H733.036V301.455H728.864V300.476C728.148 300.876 727.432 301.202 726.715 301.455C726.02 301.687 725.188 301.803 724.218 301.803ZM728.138 282.587V278.952H731.582V282.587H728.138ZM721.658 282.587V278.952H725.103V282.587H721.658Z" fill="black"/>
<path d="M741.941 301.835C740.782 301.835 739.844 301.666 739.128 301.329C738.412 300.992 737.895 300.412 737.579 299.591C737.284 298.748 737.137 297.578 737.137 296.082V289.098H735.272V285.59H737.137V281.386H741.34V285.59H745.386V289.098H741.34V294.976C741.34 295.798 741.372 296.441 741.435 296.904C741.519 297.368 741.688 297.694 741.941 297.884C742.194 298.074 742.583 298.168 743.11 298.168C743.258 298.168 743.479 298.158 743.774 298.137C744.069 298.116 744.364 298.095 744.659 298.074C744.954 298.052 745.196 298.031 745.386 298.01L745.512 301.392C745.007 301.476 744.395 301.571 743.679 301.677C742.984 301.782 742.404 301.835 741.941 301.835Z" fill="black"/>
<path d="M746.975 301.455V297.884L754.15 289.319H746.975V285.59H759.68V289.034L752.443 297.726H759.712V301.455H746.975Z" fill="black"/>
<path d="M767.948 301.835C766.789 301.835 765.852 301.666 765.135 301.329C764.419 300.992 763.903 300.412 763.587 299.591C763.292 298.748 763.144 297.578 763.144 296.082V289.098H761.279V285.59H763.144V281.386H767.348V285.59H771.393V289.098H767.348V294.976C767.348 295.798 767.379 296.441 767.442 296.904C767.527 297.368 767.695 297.694 767.948 297.884C768.201 298.074 768.591 298.168 769.118 298.168C769.265 298.168 769.486 298.158 769.781 298.137C770.076 298.116 770.371 298.095 770.666 298.074C770.961 298.052 771.203 298.031 771.393 298.01L771.52 301.392C771.014 301.476 770.403 301.571 769.686 301.677C768.991 301.782 768.412 301.835 767.948 301.835Z" fill="black"/>
</svg>
